<svg xmlns="http://www.w3.org/2000/svg" viewBox="0 0 300 149">
  <defs>
    <style>
      .cls-1{fill:#fff}.cls-2{fill:#bcd9f7}.cls-3{fill:#e3e3e3}.cls-4{fill:#f8eec3}.cls-5{fill:#fefefe}.cls-6{fill:#bde1a1}.cls-8{fill:#f8efc5}.cls-10{fill:#fdfdfd}.cls-12{fill:#bcd9f6}.cls-13{fill:#b8cda8}.cls-14{fill:#b0dc8f}.cls-16{fill:#ddd9c3}.cls-17{fill:#e4e4e2}.cls-23{fill:#dbead0}.cls-25{fill:#bee1a2}.cls-28{fill:#baceaa}.cls-29{fill:#dadcd7}.cls-33{fill:#e4e4e3}.cls-34{fill:#e3e3e2}.cls-36{fill:#eee9d2}.cls-40{fill:#bee1a3}.cls-43{fill:#f8eec2}.cls-44{fill:#dfd8db}.cls-46{fill:#b9cea9}.cls-47{fill:#b9cda9}.cls-50{fill:#dcd8c0}.cls-51{fill:#e4e4e4}.cls-52{fill:#dcd8c1}.cls-58{fill:#dbddd5}.cls-59{fill:#d9dbd6}.cls-61{fill:#eceadb}.cls-62{fill:#b8cda9}.cls-71{fill:#bdd9f7}.cls-76{fill:#b1dc8f}.cls-80{fill:#249f81}.cls-83{fill:#e7f5f7}
    </style>
    <mask id="mask" width="33" height="33.2" x="229.5" y="17.5" maskUnits="userSpaceOnUse">
      <path id="mask0_6222_276032" d="M246 50.8A16.6 16.6 0 1 0 229.5 34 16.5 16.5 0 0 0 246 50.7z" class="cls-1"/>
    </mask>
    <mask id="mask-2" width="33" height="33.2" x="49.5" y="27.6" maskUnits="userSpaceOnUse">
      <path id="mask1_6222_276032" d="M66 60.8a16.6 16.6 0 1 0-16.5-16.6A16.5 16.5 0 0 0 66 60.8z" class="cls-1"/>
    </mask>
  </defs>
  <g id="Layer_2" data-name="Layer 2">
    <g id="Layer_1-2" data-name="Layer 1">
      <path d="M196.8 148.9H161a3.1 3.1 0 0 1 1.5-2.2c2.8-2 5.1-4.4 7.7-6.5l.6-.5c2-1.6 1.4-1.5 3.3-.2.3-.5 0-.8-.3-1a1 1 0 0 1 .2-1.7c2.3-1.7 4-4 6.6-5.3.3-.2.3-.6.6-.9 2.4-2.4 5-4.6 7.3-7.1.8-1 2-1.6 2.7-2.7a1 1 0 0 1 .6-.5c1.9 0 2.8-1.7 4-2.8a17.4 17.4 0 0 0 3.3-4.5 1.8 1.8 0 0 0 .3-1.6 2.5 2.5 0 0 1 .2-1.6 6 6 0 0 0 .4-1.8c.6-1.7.9-3.4 1.3-5 .4-1.2.3-2.4 1-3.3.4-.4 0-.8 0-1.2a1.8 1.8 0 0 1-.4-1.4c.7-2 .2-4 .5-6a2.3 2.3 0 0 0-.2-1.2 36.3 36.3 0 0 1-3-8.4 3.9 3.9 0 0 0-.5-1c-.8-1.5-.7-1.8.5-3a3.2 3.2 0 0 0 .6-.4c1.6-1.5 3.7-2.4 5.6-3.7l5-3 6-3.2c.4-.3 1-.8 1.6-.4a8.1 8.1 0 0 1-.1 5.4 7 7 0 0 0 .7 6.3 6.1 6.1 0 0 1 .8 5.4 7 7 0 0 0 2 7.5 24.4 24.4 0 0 1 1.6 2.2c1.4 1.8 1.4 3 0 5-.1 0-.4.3-.3.6a7.3 7.3 0 0 1 2.5-3c2.2-1.6 4.5-1.3 7-.2a1.4 1.4 0 0 1 .8 2 5.1 5.1 0 0 0 1.2 5.3 1.3 1.3 0 0 1 .1 1.7c-2 3-6.8 4.2-10 1.3a2.9 2.9 0 0 1-.6-1c0-.3-.2-.5-.5-.4a.3.3 0 0 0-.2.2.5.5 0 0 0 .3.5 7.8 7.8 0 0 1 1.8 1.3 4 4 0 0 1-.8 6.7 9.8 9.8 0 0 0-4.2 4.6 8.7 8.7 0 0 0 2.7 10.3 20.9 20.9 0 0 1 6.8 6.8 23.8 23.8 0 0 1 2.6 9.3c0 1 .3 2 .4 3a1.3 1.3 0 0 1-.3 1.3h-19.8a2.6 2.6 0 0 1-1-1c-1-1.8-2.1-3.4-3-5.2-.5-.8-.9-.9-1.6-.4-2.6 1.9-5.3 3.6-8 5.4a13.4 13.4 0 0 1-2 1.2z" class="cls-2"/>
      <path d="M.1 62.5v-22a1.5 1.5 0 0 1 1-.3A22.7 22.7 0 0 1 10 42a11 11 0 0 0 4 2 167.2 167.2 0 0 1 18.4 7.2 5.8 5.8 0 0 1 2.4 2.4c2.3 3.5 4.7 7 6.6 10.6 2 3.8 4 7.7 4.6 12.2a1.8 1.8 0 0 0 .4 1.2c.3.5-.4.8-.2 1.3 0 1 .2 2.2 0 3.3-.5.3.3.5 0 .8l-.5 4.6c0 .5-.3 1-1 .5-.4-1.3.2-2.5.2-3.7a9.7 9.7 0 0 0 .2-2.8 29.2 29.2 0 0 0-5.4-17.3 3.8 3.8 0 0 0-2.1-1.6 1.5 1.5 0 0 1-1.3-1.2c-.4-1.5-1.7-2-2.8-3-.4 0-.6 0-.8.5l-.3 1L24 85.4c-.6 1.7-.6 1.7 1.1 2.2l9.7 3.3c2.6 1 5.3 1.3 8 2a.7.7 0 0 0 1-.6 20.2 20.2 0 0 0 .5-2.4 2.5 2.5 0 0 1 .5-1.6c1 0 1 1 .8 1.5-.4 1.3.3 2.7-.2 4.1-.2.6.8.8 1 1.4A4.2 4.2 0 0 1 46 98a66.5 66.5 0 0 0-1.2 8.4 4 4 0 0 1 0 1l-2 10.1A1.6 1.6 0 0 1 41 119a9 9 0 0 1-1.4 0l-37.7-5.8a3 3 0 0 1-1.7-.5V90.2a68.3 68.3 0 0 1 5.1-7.6c1.3-1.8 1.4-1.8-.4-3.2l-4-3.2a3.5 3.5 0 0 1-.8-1v-4a16.6 16.6 0 0 0 2.8-1 3.5 3.5 0 0 0 .9-.7c2-2.4 2-2.4-.5-4.4L0 62.5zm200.2 45.7a4.5 4.5 0 0 1-.3 1.6c-.2.6-.6 1.2-.2 2 .2.4-.1.9-.3 1.3a30 30 0 0 1-6.1 7s-.2.4-.3.3c-1.8-.3-2.1 1.5-3.2 2.3a15.9 15.9 0 0 0-3 2.9 8.5 8.5 0 0 1-2.5 2.2c-.9.5-1.3 1.4-2 2s-1.6.9-1.4 2c-1.4-.1-2 1-2.8 1.9L174 137c-.5.3-.6.7-.1 1.1a5.2 5.2 0 0 1 .6.8c.3.4.1.7-.2 1s-.6 0-.8-.3c-.6-1-1.1-1-2-.2l-7.4 6.4a12.9 12.9 0 0 0-3.1 3h-33.8c-.3-.6.1-1 .4-1.2 3-4.2 6.2-8.4 9.3-12.5 3.4-4.6 8-8 12-12 2.5-2.6 5.2-5 7.8-7.6a7.6 7.6 0 0 1 3.4-2.3 1 1 0 0 0 .7-.8c.4-2.4 2.4-3.6 4-5l10.8-9.7c2.4-2.1 4.7-4.5 7-6.7a12.3 12.3 0 0 1 2.3-1.7 79.8 79.8 0 0 0 8.2-6 16.2 16.2 0 0 1 2.2-1.6 5.1 5.1 0 0 0 2.5-3.4c.5-.7 1-1.4 2.2-1.1-1.6 1-1.7 2-.9 3.8 1 2 1.5 4.3 2.3 6.5a7.5 7.5 0 0 0 .6 1.5 3 3 0 0 1 .5 3 1.5 1.5 0 0 0 0 .7 5.9 5.9 0 0 1-.2 3.7c-.2.4-.3 1-.1 1.2 1.7 2-.8 3.5-.7 5.3a1.1 1.1 0 0 1-.3-1.2c.2-.9-.2-1.2-1-1.4a49.5 49.5 0 0 1-5.3-1.2 1.7 1.7 0 0 0-1 0c.6.8.2 1.7 0 2.5-.6 2-1 4.3-1.7 6.5-.2.7 0 1.2.7 1.4 1.6.3 3.1 1 4.7 1.2.9.2 1.2 0 1.6-.8s0-1.6 1-1.8z" class="cls-3"/>
      <path d="M200 77.3a4 4 0 0 0-2 1.2c-1 1.2-2.7 1.7-4 2.7-5.1 2.2-9.2 6-13.4 9.5L170 99.6a69.5 69.5 0 0 0-5.6 5.5 15 15 0 0 1-3.4 2.8c-1.2.7-2 1.7-1.7 3.3a1 1 0 0 1-.7.8.7.7 0 0 1-.6-.2c-1-1.3-2-.9-3.3-.3a36.6 36.6 0 0 1-7.8 2.8l-7.6 2.2c-8.2 3-16.4 5.5-24.6 8.2a55.2 55.2 0 0 0-18.5 10.1 57.2 57.2 0 0 0-7 7.6l-4.5 5.6a3.6 3.6 0 0 1-1 .9h-4a.5.5 0 0 1 .1-.6l5.7-7.2a13.7 13.7 0 0 1-4 1.4 3 3 0 0 1-2.3-.3.4.4 0 0 1 0-.4c.4-.3.8-.2 1.2-.2a10.5 10.5 0 0 0 6.6-3l3.8-4a55.7 55.7 0 0 1 14-10.2 8.8 8.8 0 0 0 2.6-1.3 3.7 3.7 0 0 1 3.6-1.4c1 0 2-.8 3-1.1 6-2.2 12-4.1 18.2-6a138.4 138.4 0 0 0 19-7.2c1-.6 2-1 2-2.6a.9.9 0 0 1 .7-.7 3 3 0 0 0 3.5-.2 103 103 0 0 0 12.2-9c6-5.4 12-10.5 18.4-15 1.5-1.2 2.8-2.7 4.5-3.5a10.5 10.5 0 0 1 1-.6l.7-.4a2.7 2.7 0 0 0 1.3-1.3c6.1-2.8 11.6-6.8 17.4-10.2l2.6-1.4 2.8-1.7a11.7 11.7 0 0 1 1.6-.8c1.7-.7 3.3-1.7 5-2.4l2-1a5 5 0 0 0 3-3.4 3.7 3.7 0 0 0-2-4l-.8-.3c-2-1-2.3-.9-3.4 1a5 5 0 0 1-1.9-3.7.5.5 0 0 1 .5-.3c2.7.4 5.5.5 7.6 2.5a50.7 50.7 0 0 1 3.7 4.2 9.3 9.3 0 0 0 .9 1 2.3 2.3 0 0 0 3 .3 2.3 2.3 0 0 0 1-2.9 6.8 6.8 0 0 0-.4-1 141.1 141.1 0 0 0-7.5-12.6c-2.8-4.2-6.4-7.4-10-10.8-2-2-4.2-3.8-6.4-5.6a9 9 0 0 0-10.8-1c-1.7 1-2 2.5-1 4a32 32 0 0 0 5.1 5.8 2.2 2.2 0 0 0 2 .7c.3-.1.9-.3 1 .3s-.5.5-.9.7a2.1 2.1 0 0 1-.3 0 5 5 0 0 1-1.1.3c-1.4-1-2.3-2.4-3.5-3.5a14 14 0 0 1-3.3-4c-1-1.5-.8-3 .4-4.5a11.5 11.5 0 0 1-5.3-1.8c2.2 1.9 4 3.8 5 6.4a13.4 13.4 0 0 0 2.4 3.2 24.8 24.8 0 0 1 4 4.3 1 1 0 0 1-1.3.7 57 57 0 0 0-4.3-5.1 8.8 8.8 0 0 1-1.7-2.7c-2-4.4-5.6-7.3-9.8-9.3a8.8 8.8 0 0 0-7.1 0 17.4 17.4 0 0 0-6.8 5c-1.9 2.2-3.4 4.7-5.2 7-3.6 5.4-7.8 10.3-11.8 15.4l-.8 1.4c-1 .4-1.7.7-1.6 2 0 .4-.4.7-.8 1l-4 4a17.9 17.9 0 0 1-4-2.7c.1-1 1-1.5 1.5-2.2l2.3-2.8c.2-.3.5-.8 1-.8 1 0 1.4-.7 1.6-1.5 1.3-1.8 2.8-3.3 4-5l8.5-11c1.5-2 3.3-3.7 4.4-6a31.7 31.7 0 0 0 3-9.3 29.7 29.7 0 0 1 2-7.4c.3-.6 0-1.2 0-1.8a1.2 1.2 0 0 1 .3-.8h4.3c0 .3-.1.5-.3.7-1 1.2-1.1 1.7-.3 3a3 3 0 0 0 3.2 1.4 3 3 0 0 0 2-3.9c0-.4-.3-.7 0-1.2h4a39.5 39.5 0 0 1 4 3.6c.7.6 1.1.6 1.5-.2a2.9 2.9 0 0 1 .5-.7c.7-.8 1-1.5.1-2.3a.3.3 0 0 1 0-.4h2.5c.4.4-.3 1.2.7 1.4.1-.4-.1-1 .3-1.4h.5c.5 1.6.6 3.3 1.2 4.8a11.9 11.9 0 0 0 6.2 8.3 80.2 80.2 0 0 1 11.8 7.7l1.6 1.3c1.6 1.3 1.6 1.3 3.2.3a.4.4 0 0 1 .4.3 1.6 1.6 0 0 1-.4 1c-.5.6-.1 1 .2 1.3 1.2 1.5 2.7 2.8 4 4.3 4.4 5 8.2 10.2 12 15.4a17.4 17.4 0 0 0 2.8 3.4 3.9 3.9 0 0 0 2.2 1c.3 0 .6.2.6.6a17 17 0 0 0-2 2.4 1.4 1.4 0 0 1-1.3.8c-.8-.1-1.3.8-2 .5-.5-.8 0-1.9-1-2.6a3.7 3.7 0 0 1-2.2 4.2 3.5 3.5 0 0 1-4.2-1.2 46.8 46.8 0 0 1-3.2-3.9c1 1.1 1 2.7.8 4.2a4.3 4.3 0 0 1-2.5 3.4 27 27 0 0 1 7.6-.6l2.7.3a29 29 0 0 1 7 1.5 4.3 4.3 0 0 0-3.3-2.4.6.6 0 0 1-.5-.4.5.5 0 0 1 .2-.3 1.3 1.3 0 0 1 .6-.2c.8.2.5-.3.5-.7a2.3 2.3 0 0 1 2-2.1c.8-.1 1.2-1 2-.7.4.8.3 1.7.7 2.5a20 20 0 0 0 4 4.7 43.7 43.7 0 0 0 7.5 5 4 4 0 0 0 1.3.4c.5 0 .8 0 .6-.6 0-.3-.2-.7.2-.9.5-.2.8.4 1.2.6s.3.6.2.9a3.6 3.6 0 0 1-1.2 1.2c3 1.7 6 3.5 9.3 4.9a27.9 27.9 0 0 0 4 1.8c4.9 1.2 8.7 4.3 12.9 6.8 3.7 2.2 7.1 4.8 11 6.7a1.9 1.9 0 0 1 1 .8v5.5c-.6.4-1 0-1.5-.3-1.8-1-3.6-2-5.4-2.8a3.6 3.6 0 0 0-4.4.4 51.9 51.9 0 0 1-5 4c-1 .7-.7 1.6-1 2.4a8.5 8.5 0 0 1-3.7-1.7c0-.6.5-.6.8-.8 2-.8 3.4-2.3 4.7-3.9a3.4 3.4 0 0 0-.7-5 100.8 100.8 0 0 0-13.5-8.4c-4.6-2.6-9.3-5.1-14.2-7.3a18.9 18.9 0 0 1-4.8-3.1 8.3 8.3 0 0 0-2.4-1.5 5.8 5.8 0 0 1 1.7 3.3l1 3.4c0 .4.4 1-.2 1a1.8 1.8 0 0 1-1-1.3c-.5-1.6-.7-3.4-1.6-5-1.3-2.1-3.6-2.9-5.8-3.7a14.9 14.9 0 0 0-2.6-.7c3.1.7 4.7 2.7 4.5 5.8a5.8 5.8 0 0 1-1.8 3.5 67.8 67.8 0 0 1-7 4.4c-.8.6-1.7-.3-1.8-1.8a13.5 13.5 0 0 0 8.2-3.8 4.1 4.1 0 0 0-1.5-6.8c-2-.7-4-1.4-6-1a9.7 9.7 0 0 1-2 0 2.7 2.7 0 0 0-2 .3 1.9 1.9 0 0 1-2.3.2c-.6-.3-1.2 0-1.8.2L222 64c1-.4 2 0 3 .4a8.8 8.8 0 0 1 2 1.2c1.2.9 1.6 2.3 2.2 3.6a26.3 26.3 0 0 1 1.8 7.7 3.1 3.1 0 0 1-.3 2 .7.7 0 0 1-.7 0 38.9 38.9 0 0 0-1-6.9 9.1 9.1 0 0 0-3.8-5.6c-1.5-1-3.2-.7-4.8-.5l-1.8.5a5.5 5.5 0 0 0-3.4 1.3c-1 .8-2.3 1.3-3.4 2-.5.4-1.2.5-1.6 1-2.8 2-5.9 3.6-8.8 5.5a4.5 4.5 0 0 0-1.5 1.2z" class="cls-4"/>
      <path d="M218.6 66l1.7-.5c1 2.3 1.8 4.6 1.2 7.3a5.7 5.7 0 0 0 1.7 5.5 20 20 0 0 1 2.3 3.7 2.3 2.3 0 0 1-.5 3c-1.2 1.2-1.4 2.4-.7 3.5a2.7 2.7 0 0 0 5-.6 2.3 2.3 0 0 0-.8-2.8 4.2 4.2 0 0 1-1.8-3.4c0-1 .4-1.5 1.4-1.5a6.2 6.2 0 0 1 3.9.6 10.2 10.2 0 0 0 .8 2.5c.3.5.6 1 1 1-1-.8-1.1-1.5-.2-3a3 3 0 0 1 2 .6 2.6 2.6 0 0 1 1 .7c2.3 3 5 6 7.6 8.9 1.7 2 2 4.8 2.6 7.4a12.9 12.9 0 0 1-.4 7.5 4.5 4.5 0 0 0 0 2.8 5.9 5.9 0 0 1-1 5.2 25.7 25.7 0 0 0-3 4.8 11.3 11.3 0 0 0-.8 5.6 5.6 5.6 0 0 0 2.7 4 1.5 1.5 0 0 0 1.5.2l2.5-1c1.3-.5 1.7-.3 2 1a20.2 20.2 0 0 0 1.9 6l4 7.2c.7 1.6 1.5 3.3 2.4 4.8.3.6.7 1.1.2 1.8h-26.5l-1-7a17.6 17.6 0 0 0-3.3-8.2 19.5 19.5 0 0 0-5.4-5c-3.5-2.1-4.5-7.7-3-10.8a11.2 11.2 0 0 1 4.7-4.7 3.6 3.6 0 0 0 .7-6c-.6-.5-1-1.3-2.1-1.3-.4 0-.6-.5-.6-.8a.9.9 0 0 1 .7-.8.7.7 0 0 1 .9.5c.2 1.6 1.5 2 2.7 2.4a5.5 5.5 0 0 0 4.3 0 7.2 7.2 0 0 0 3-2.2c.4-.6.5-1 0-1.6a4.8 4.8 0 0 1-1.3-5.4c.3-1 0-1.5-1-1.9-3.3-1.4-5.8-.7-8 2a2.1 2.1 0 0 0-.3 1.2c0 .4-.3.7-.8.5a.6.6 0 0 1-.4-1l.6-.4a3 3 0 0 0 .2-4.5c-1-1.3-2.2-2.5-3.2-3.9a5.4 5.4 0 0 1-1-5 7.5 7.5 0 0 0-1-7 5.4 5.4 0 0 1-.5-4.8 15.1 15.1 0 0 0 .6-6.5c0-.4.5-.3.8-.6zM83.8 148.9c2.2-2.9 4.4-5.6 6.7-8.3l3-3.6a47.1 47.1 0 0 1 13-9.4c4.5-2.3 9.3-3.6 14-5.1 7.4-2.5 14.7-5 22.1-7.3 2.8-1 5.7-1.5 8.6-2.5a18.4 18.4 0 0 0 3-1.3c1.8-1 3.2-1.2 4.5.5.6.8 0 1.2-.5 1.6-2.4 2.5-5 4.8-7.5 7.2s-4.8 4.8-7.4 7a66.7 66.7 0 0 0-10.2 11.8l-6.2 8.2a3.7 3.7 0 0 1-1 1.2zM.1 145.4v-31.7c.5-.4 1-.2 1.6-.1l27 4 11.3 1.8c1 .2 1.8-.2 2.6.2.7 1 0 2.3-.2 3.4a25 25 0 0 0-1.1 3.5 10 10 0 0 1-4.3 6 31.5 31.5 0 0 0-5.8 5.3 21.7 21.7 0 0 0-3.8 6.6 24.8 24.8 0 0 1-1.7 4.5H4a22.5 22.5 0 0 1-3.8-3.5z" class="cls-3"/>
      <path d="M167.8 25.6a61.7 61.7 0 0 1-4.5 5.8 49.4 49.4 0 0 1-4 5 2.8 2.8 0 0 1-1.4-1c-.9-.7-1.2-.7-1.8.3s-1 1.8-1.7 2.6c-.8 1.1-1.5 1.3-2.5.5a23.6 23.6 0 0 1-4.7-4.3 55 55 0 0 1-5.7-3.6A93.2 93.2 0 0 1 132 23c-1.7-1.8-3.1-3.9-4.8-5.7a62.8 62.8 0 0 0-6.8-6.8 4.5 4.5 0 0 1-1.3-3.2c0-1.5-.6-2-2-1.4a1.3 1.3 0 0 1-.7 0 6 6 0 0 1-4.2-3.7 2 2 0 0 1 0-2h32.7a13.5 13.5 0 0 1 2.8 3l4 5.3c.8 1.3 2.3 2 3.5 3l2.4 2.2a5 5 0 0 0 3 1.7A3.3 3.3 0 0 1 163 17a18.4 18.4 0 0 0 1.4 2 6.5 6.5 0 0 1 1.4 4.3c0 .2 0 .5.2.7.5.6 1.4 1 1.9 1.6z" class="cls-2"/>
      <path d="M300 86.7c-4.5-2-8.5-5-12.7-7.6a95 95 0 0 0-9.3-5.5c-1.6-.7-3.4-1.1-5-1.8-4.1-1.7-8-4-12-6 .7-.4 1.4-.6 1.7-1.3.4-1-1-.6-1-1.4 0 .2-.2.3-.2.3 0 .5.9 1 .3 1.5s-1.2 0-1.7-.2a43 43 0 0 1-7-4.1 22 22 0 0 1-4.4-4.4 5.3 5.3 0 0 1-1.4-4.2c-.2-.6.3-1 .7-1.2l8.6-6.8a3.3 3.3 0 0 1 4.2-.2c6.6 3.8 13.4 7.3 20 11l18.4 9.9a3.1 3.1 0 0 1 .8.6z" class="cls-3"/>
      <path d="M19.6.1h1.5a3.3 3.3 0 0 1 .3 2.5 18.3 18.3 0 0 0-.1 4l-.3 6.3c.2 3.4-.3 6.7-.2 10.1 0 1.6 0 1.6 1.5 1.9 6.3 1.1 12.7.8 19 .8 1 0 1.7-.6 2.6-.2l.4.1c1 .4 2 0 3 0 2.5-.1 5 0 7.6-.3 1.8-.2 2-.3 1.8-2.2l-1.3-11.4-1.2-10a2 2 0 0 1 .2-1.6h2.2c.8 1.4.6 3 .8 4.5l2 16.7v2c0 1.3.4 1.5 1.6 1.4l5.8-.5c6.2-.6 12.3-1.2 18.4-2 3.5-.4 7-.5 10.5-1 1.5 0 1.6-.2 1.2-1.6L92.4 4c-.3-1.3-1-2.4-.8-3.8h2.2a3.4 3.4 0 0 1 .8 1.8l4 13.8 1.3 4.3A38.8 38.8 0 0 0 101 24a20.5 20.5 0 0 0 2.2 4.3c1.5 3 3.7 5.3 5.5 8l6.8 9.2c1.6 2.2 3 4.5 4.5 6.7l.7 1.2a25 25 0 0 0 3.2 3.5 5.5 5.5 0 0 0 2.2 1.4c.4.1 1 .3 1 .8a.9.9 0 0 1 0 .6.8.8 0 0 1-.4.3 3 3 0 0 0-2.3 1.7.8.8 0 0 1-.6.4.8.8 0 0 1-.5-.2 7.3 7.3 0 0 0-2.8-4.6 5 5 0 0 1-1-1.4c-2-3-4-6.2-6.3-9.1l-.2-.2c-1.7-2.2-2-2.2-4-.5a28.7 28.7 0 0 1-2.7 2 7.5 7.5 0 0 0-3.6 6c-.6 5.1-1.3 10.2-1.8 15.4l-.3 1.6a6.8 6.8 0 0 0 .6 4.9.6.6 0 0 1-.2.3.8.8 0 0 1-1 0 2 2 0 0 0-2-.2.8.8 0 0 1-1-.2c-.4-.5-.2-.9 0-1a3.5 3.5 0 0 0 1-2.5l2-17.4v-.4c.4-3 0-3.7-3-4.2l-12.6-2c-1.4-.2-1.4-.2-1.6 1.2L80 68a2.8 2.8 0 0 0 .5 2.2c.5.6 1.3 1.2.4 2s-1.3-.2-1.8-.6v-.1a1.3 1.3 0 0 0-2.1-.8 8.2 8.2 0 0 1-1 0c-1.4-.3-1.6-.5-1.4-1.6a2.3 2.3 0 0 1 1.5-.3 1.3 1.3 0 0 0 1.5-1.3l3-18.5c0-.8 0-1.3-1-1.4l-8.6-1a2 2 0 0 1-.4 0c-3.5-.9-7-1.4-10.5-2.2a16.4 16.4 0 0 1-2.1-.6 1.6 1.6 0 0 1-1.2-1.5 1.8 1.8 0 0 1 .7-1.5 1.9 1.9 0 0 1 2 .2 10.6 10.6 0 0 0 5 1.6l5.5.7a2.2 2.2 0 0 0 2.6-2.8c-.1-.6-.6-.6-1-.7l-7-1.2c-2.7-.4-3.1-1-2.7-3.7l.2-1.4a4.7 4.7 0 0 1 5-4.3c2 0 4-.5 6 0a.9.9 0 0 0 1.2-.6 3.2 3.2 0 0 0 .2-2.2c-.2-.4-.7-.2-1-.2l-8.3.8c-1.5.2-3 .4-4.4.4-1 0-1.4.5-1.3 1.5a34.4 34.4 0 0 1-1.4 8.7 78.5 78.5 0 0 1-3.2 7.2 9.9 9.9 0 0 0-1 3.4c-.6 1.5-1.3 2.9-1.8 4.4a1.5 1.5 0 0 1-.5.7 3.6 3.6 0 0 1-2.4-1 2.1 2.1 0 0 1 .2-1.2 15 15 0 0 0 .7-1.5c.5-1.3 1-2.7 1.7-4l.7-1.4a39.9 39.9 0 0 0 4-14.7c0-1.4 0-1.6-1.4-1.6h-8.4a.9.9 0 0 0-.4 0c-2.6 1.1-5.4 0-8 .2s-5.5.1-8.2 0-5.3-.6-8-1c-1.5-.2-1.6-.1-1.5 1.4a15.7 15.7 0 0 1-2 7.4 1.8 1.8 0 0 1-2.4-1.4 7.3 7.3 0 0 0 2-5l.3-13.2c.2-4.7.5-9.3.5-14a3.5 3.5 0 0 1 .6-2.2z" class="cls-5"/>
      <path d="M103 28.4a11.6 11.6 0 0 1-2.2-4.3c0-1.3.6-2 1.8-2a3.7 3.7 0 0 0 1.3 0c.6-.2 1-.6.6-1.2-1.3-2.5 0-4.7 1-6.8.8-1.5.6-2.5-1-3.3a1.4 1.4 0 0 0-2 .5 14.2 14.2 0 0 0-1.6 3.5c-.3.6-.5 1-1.2 1a1.4 1.4 0 0 1-1.4-1c-1.4-4.4-2.5-9-3.9-13.4a1.2 1.2 0 0 1 .2-1.3h17.2c.3.3 0 .5 0 .7-.3 3.3 1.3 5 4.5 4.9l1.9-.3c.9 0 1.2.3 1.1 1.1a4.4 4.4 0 0 0 1.3 4 16 16 0 0 1 1.8 3.7c1.2 3 2.5 6 6 7.3a10.2 10.2 0 0 1 4.1 2 6.5 6.5 0 0 1 2.1 4.7l.3 3.6c.2 1.8 1.3 2.3 3 2 1.5-.2 3-.6 4.5-.7a1.5 1.5 0 0 1 1 .2 11.1 11.1 0 0 1 2.8 2.3 2 2 0 0 1-.6 1.2l-7.5 9.6c-.8 1.1-1.1 1.1-2.3.3l-.8-.6a1 1 0 0 1-.2-1.5 13.8 13.8 0 0 1 1.6-1.8c1.2-.9 1-1.7-.3-2.3a24.7 24.7 0 0 1-3.1-2.3c-.6-.5-.5-1.3-.4-2a3.6 3.6 0 0 0-.4-2c-.4-.7-.2-1.4-.2-2s.3-1.7-.5-2a2.8 2.8 0 0 0-2.6 0l-5.9 3.4a4.3 4.3 0 0 1-2.5.5c-1.2 0-1.7-.4-2-1.6s-.5-1.5-1.8-1.3l-3 .6a4.4 4.4 0 0 1-2.7-.2 2 2 0 0 0-2 .2c-2.7 1.6-2.2 2-4.3-1-.5-.8-1-1.7-1.6-2.4z" class="cls-6"/>
      <path d="M91.6.1l5 17.3.9 3c.2.8 0 1.2-1 1.3-5 .3-10 .7-15 1.4-3.7.5-7.3.7-11 1l-9 1h-1c-1 .1-1.4-.3-1.4-1.3-.1-3.8-.7-7.6-1.2-11.3L56.6.2z" class="cls-3"/>
      <path d="M232 81a10.7 10.7 0 0 0-4-.5c-.7 0-1 .3-1 1 .2 1.2.2 2.4 1.5 3.2a2.8 2.8 0 0 1 1.1 3.5 3.3 3.3 0 0 1-3.1 2 3 3 0 0 1-2.8-2 3 3 0 0 1 .7-3.2c1.4-1.7 1.1-2 0-4s-3-3.4-3.3-5.7a13.1 13.1 0 0 1 .2-4.4 4.5 4.5 0 0 0-.5-3 3.9 3.9 0 0 1-.6-2.3 6.3 6.3 0 0 1 5.3.5c0 .3-.2.5-.5.6a3 3 0 0 0-1.4 2.8 18.5 18.5 0 0 1-.4 3.6 4.6 4.6 0 0 0 4.4 5.3c.8 0 1.6-.2 2.4.4h.7a.9.9 0 0 1 .5-.1c.6 0 1.3.6 1.7-.2a2.6 2.6 0 0 0 0-2.6 43 43 0 0 1-4.4-8.8 2 2 0 0 0-1.8-1.6l-1.7-1c-.1-.4.3-.6.5-.6a1.5 1.5 0 0 0 1.3-1.8c.8-.2 1.6-1 2.5 0 .3.4.8 0 1-.3a3.4 3.4 0 0 1 3.5-.5 7.1 7.1 0 0 0 1.2 0c.1.7-.4 1-.8 1.2a9.8 9.8 0 0 1-2.7 1.6c-1 .3-1 .7-.6 1.6 1.1 2.3 2 4.7 3.2 7 0 .2.3.4.2.7 1 1.7 1 1.7 3 .6s3.7-2 5.4-3.4A15 15 0 0 1 245 69a4 4 0 0 1 5.5 1.7l.7 1.3c1 .3 1.1 1 1.5 1.8.3.3.3.7 1 .3s1 .3 1.3.7a41.5 41.5 0 0 1 2.4 3.5c.4.7.8 1 1.7.6a.8.8 0 1 1 1 1.3c-.8.6-.5 1 0 1.6a43.9 43.9 0 0 0 11.4 8.5c2.1 1.1 4.3 2.2 6.5 3.1a1.5 1.5 0 0 1 1 .8l3.7 1.8c1.2 0 2 .7 3 1.2 4.6 2.3 9.2 4.9 13.7 7.3a1.4 1.4 0 0 1 .6.5v13.5a33.7 33.7 0 0 0-5.4 2.8 25.1 25.1 0 0 0-2.5 1.9c-.3.2-.6.5-.7.8-.4 1.7-1.7 2.2-3.2 2.8-1.6.6-3 1.9-4.6 2.6a23.3 23.3 0 0 1-18.6.8l-5.6-2a13.5 13.5 0 0 0-6.2-.7c-1 0-1.2.5-1 1.5a23.9 23.9 0 0 0 3 7.7c1.8 3.4 3.7 6.7 5.4 10.1a2.7 2.7 0 0 1 .4 2.2h-2.3a3.4 3.4 0 0 0-.6-2.1l-6.2-11.3a20.2 20.2 0 0 1-2-6.6c-.2-1-.6-1-1.3-.7a19.3 19.3 0 0 0-2.5 1c-1 .6-1.8.2-2.5-.4-2.3-1.8-2.7-4.2-2.3-6.9a16.7 16.7 0 0 1 3.5-7.3 6 6 0 0 0 1.2-5.7 4 4 0 0 1 .2-2.8c1-2.5.6-5 .2-7.5 0-.9-.4-1.7-.6-2.6a12.1 12.1 0 0 0-4-6.6 27.7 27.7 0 0 1-4.5-5.4 6 6 0 0 0-3.8-2.6 1.2 1.2 0 0 1-1.5-.5z" class="cls-5"/>
      <path d="M54.4.1l.7 5.7c.4 3.4.9 6.8 1.2 10.3.2 2.8.8 5.5.8 8.3 0 .8-.2 1.1-1 1.2-3.5.4-7.1 0-10.6.5-.5 0-1 .2-1.3-.3a9.6 9.6 0 0 1 3.6-.8 22.7 22.7 0 0 0 4.4-.2c1.7-.3 2.5-1.7 3.3-3 .4-.7 0-1.2-1-1l-7.3.8-1 .1c-2 .2-2.4 1-2.1 3 0 .4.4.8 0 1.2a1.8 1.8 0 0 0-1.6 0 2.2 2.2 0 0 1-1.3.3H29.5c-2.9-.2-5.7-.7-8.5-1-.8 0-.6-.8-.6-1.2l.3-11a6.8 6.8 0 0 1 2-.1c.8 0 1-.3 1-1V8c0-.7-.3-1-1-1a2.6 2.6 0 0 1-1.8-.3c.1-1.4-.2-2.7.2-4 .6.5.4 1 .4 1.7 0 .8.3 1.2 1.1 1.2h5c.7 0 1-.3 1-1v-3A2.2 2.2 0 0 1 29 0zm160.4 0h54.7c.5.5.2 1.2.4 1.8.6-.6.7-1.4 1.3-1.8h.5c.2.5 0 .9-.2 1.2-2.5 4.7-5 9.4-7.7 14l-3.7 6.8c-1.3 2.3-1.4 2.3-3.7 1-.6-.4-1.4-.6-1.8-1.3a1.5 1.5 0 0 1 .2-1c.2-.5.2-.8-.3-1s-.7 0-.9.5a1.6 1.6 0 0 1-.4.7 13.1 13.1 0 0 1-4.2-2c-5.4-3-10.8-5.8-16.2-8.6L215.5 1c-.3-.2-.8-.3-.7-1z" class="cls-3"/>
      <path d="M254.8 21.6s0 .2.2.2c1.2.6 2.4 2 3.6 1.8s1.5-2 2.1-3.2c2.8-5.3 6-10.3 8.6-15.6l2.4-4.7h1.3c.2.6-.2 1-.4 1.5-2 4-4.2 7.9-6.3 11.8-1 1.7-1 2 .8 3l11.4 6a1.6 1.6 0 0 0 2-.3c5.7-4.8 12-9.1 17.8-14 .5-.3 1-1 1.7-.7V10a4 4 0 0 1-1.1 1.3l-9.7 7.8c-1 .7-1 .8 0 1.3l9 5.3A3.8 3.8 0 0 1 300 27v1c-.3.2-.7 0-1-.2l-11.7-6a1.6 1.6 0 0 0-2 .2l-10.6 8.4c-1.2 1-1.2 1 .2 2a103.8 103.8 0 0 0 9.6 5.5l14.7 7.8a1.8 1.8 0 0 1 .8.8v1.2c-.4.3-.7 0-1 0l-17.7-9.6-9-4.6a1.4 1.4 0 0 0-1.7 0l-8 6.5c-1.3 1-1.2 2 .3 2.8 3.4 2 6.8 3.8 10.2 5.6l22.3 12c1.2.7 2.4 1.2 3.6 2a2.5 2.5 0 0 1 1 .8v2a48.3 48.3 0 0 1-6.1-3l-7.7-4.3c-8-4.3-16-8.3-23.7-12.9-.7-.5-1.6-1-2.4-1.3a2.3 2.3 0 0 0-2.7 0l-9.8 7.8a2.6 2.6 0 0 0-.4.4 8.9 8.9 0 0 1-2.3 1c-.8.1-1.2 1-1.4 1.8-.2.5-.8.7-1.3 1h-.2c-.8 1-1.6 1.8-3 1.7l-3-.3a.3.3 0 0 1 0-.3 21 21 0 0 1 4.7-3.4c.7-.3 1.1-1 2.1-.8.6.1 1-.6 1.3-1a3.4 3.4 0 0 1 1.9-1.9 2.4 2.4 0 0 1 1-1.2l6.8-5.3c1.3-1.1 1.3-1.8-.1-2.7a3.5 3.5 0 0 1-.3-.2c-.4-.3-1.2-.5-.8-1.2a1.5 1.5 0 0 1 1.8-.8 7.6 7.6 0 0 1 2.2 1 1.6 1.6 0 0 0 2.2 0l9-7.2c.6-.5.5-.7-.2-1.1l-9.2-4.9-7-4c-1.3-.7-1.3-.6-2 .6q-2.4 4.3-4.6 8.7c-.4.8-.6 1.3.3 1.8s.8 1-.1 2a1 1 0 0 1-.4.2 2.3 2.3 0 0 1-1.1-.5q-8.3-4.3-16.5-8.8a13.2 13.2 0 0 0-2.8-1.1c-.6-.3-1-.6-.2-1.3.3-.2 1.2-.2.5-1l-.2-.2c-.4-.5-.2-.9 0-1.2a11.4 11.4 0 0 0 2-3c.7-1.3 1.2-2.7 2-4l1.4-2.4c.5-.9.4-1.2-.5-1.7-3.9-1.9-7.6-4-11.4-6-2-1.1-4.1-2.1-6-3.3-.4-.2-1-.3-.8-.9h3.8c.9 1 2.2 1.4 3.3 2L238 12.7l15.3 8.2a1.3 1.3 0 0 1 1.6.7z" class="cls-5"/>
      <path d="M19.6.1c-.3 4.8-.3 9.5-.5 14.2l-.5 13.3c-.1 2.2.2 4.6-1.4 6.4-.3.4-.5.8-1 .8-1.4.1-2.5-.8-3.8-1.2-2-.6-4-1.4-6.2-2.2A6.5 6.5 0 0 1 2.4 27a64 64 0 0 1-2.2-7V3.4a7.8 7.8 0 0 1 3-3.3z" class="cls-3"/>
      <path d="M300 127.4v20.7c0 .7-.1.8-.8.8h-23.6c-1.5-2-3.8-2-5.9-2.5a1.7 1.7 0 0 1-1-.7 6.2 6.2 0 0 1-1-1.3 12.8 12.8 0 0 0-5.3-6 4 4 0 0 1-1.3-3.8c.2-.5.6-.5 1-.4 2.7.4 5.5.8 7.7 2.7.2-1.4 0-1.5-1-1.9a8.3 8.3 0 0 0-4.3-.4c-1.2.2-2.3-.5-3.5-.6-.6 0-.8.1-.9.7a19 19 0 0 0 .1 2.6 4 4 0 0 1-2.3 3.9c-.6-.5-.1-1 .2-1.5a5.2 5.2 0 0 0 .7-4.5 5 5 0 0 1 .2-3.2c.6-1.3.7-1.4 2-1l8.4 2.6a10.4 10.4 0 0 0 2.8.5 29 29 0 0 0 12-2.6c4.4-1.8 9-2.5 13.6-3.7a5.4 5.4 0 0 1 2.2-.4z" class="cls-6"/>
      <path d="M300 7.4c-1.7.7-2.9 2.2-4.3 3.2l-9.4 7.2-5.7 4.6a1.6 1.6 0 0 1-2.1.3c-3.7-2-7.6-3.8-11.2-6-2.4-1.3-2.4-1-1.2-3.6 2.3-4.3 4.8-8.5 7-13H299c1 0 1.2.3 1.1 1.2v6zm0 55.9l-26-14-11.2-6c-2-1-2-2.3-.3-3.6l8.2-6.5a1 1 0 0 1 1.3-.1c5.6 3 11.3 5.8 16.8 8.9l8.8 4.6a7.5 7.5 0 0 0 2.4 1.2zm0-16.7l-22-11.8c-1.5-.8-2.9-1.8-4.3-2.7-.5-.3-1-.6-.2-1.1l12-9.5a1.3 1.3 0 0 1 1.5-.1l13 6.7z" class="cls-3"/>
      <path d="M165.8 24.1c-.3 0-.7 0-.6-.5a5.4 5.4 0 0 0-1.7-5.1c-.5-.6-.7-1.4-1.3-2a2.8 2.8 0 0 0-1.8-.8c-1.3 0-2-.8-3-1.6a36.7 36.7 0 0 0-5.7-4.8 1.3 1.3 0 0 1-.3-.3c-1.8-3.2-4.5-5.8-6.6-8.9h3.8a9.7 9.7 0 0 0 2.6 2.5 3.3 3.3 0 0 1 1.4 2.4c.4 2.3 2.3 3 4 4 .4.2.6 0 .8-.5s.2-1-.5-1a2.7 2.7 0 0 1-2.4-1.7 4.5 4.5 0 0 1-.3-3 1.6 1.6 0 0 0-1.2-2c-.3 0-.7 0-.7-.6h10c.3.3 0 .7 0 1s.2.8.6.9c.6 0 .5-.5.5-.8s0-.9.4-1h7c.4.2.3 1 .9 1.2-.2-1.4 1-1 1.6-1.3h4V1c-1.6 5.5-2.7 11-6 16-1.4 2-2.3 4.2-4 6-.5.5-.8 1.1-1.5 1.2z" class="cls-6"/>
      <path d="M79.4 142.1c2.5.6 4.6-.6 7-1.4l-6.6 8.2H60.4a10.6 10.6 0 0 1 1.1-5.9 2.7 2.7 0 0 1 2.4-1.3 32.9 32.9 0 0 1 5.5.5c-.5-.6-1-.5-1.4-.6-.7-.3-1.2-.7-.8-1.6 1.8.1 2-1 2.3-2.5l4-25a2.6 2.6 0 0 1 .5-1.4 1.8 1.8 0 0 1 1.4-.1l4.2.7c1.2.2 1.3.5 1 1.7-.2 2.6-.5 5.3-1.1 8-1.3 5.4-2 11.1-2.8 16.7a10.3 10.3 0 0 1-.2 1c-.3 1.6-.6 1.8-2 1.8a20.6 20.6 0 0 0-2.6.1s-.3 0-.4.4c2.7.4 5.4-.4 8 .7zM226.5 18.4a7.2 7.2 0 0 1-1.8 3.1 1.2 1.2 0 0 0-.4 1.1c-1.3 1.5-1.4 1.5-3 .2a89.8 89.8 0 0 0-14.3-9.6 11.2 11.2 0 0 1-5.7-8c.9 0 .9 1 1.5 1.3a45.4 45.4 0 0 0 2.7-5 2.7 2.7 0 0 1 1-1.4h4.5a57.9 57.9 0 0 0 6.2 3.5c4 2.3 8.3 4.4 12.5 6.6.7.4 1 .8.5 1.6l-1.7 2.8-3.7-2c-.7-.4-1.2-.3-1.6.5a13.8 13.8 0 0 1-1 1.9c-.4.6-.2 1 .4 1.4l4 2z" class="cls-3"/>
      <path fill="#f9f6da" d="M49.3 52.3c.7.6 1.7.3 2.3 1 .2.3 0 .6 0 1a36.5 36.5 0 0 0-1.5 5.4 14.4 14.4 0 0 0-.4 3.9c0 1.3.8 1.9 2 1.8a2 2 0 0 0 1.9-2.2c0-.6-.5-1-.5-1.7.5-.7.9 0 1.3.3a4.7 4.7 0 0 1 .3 2.7 1.3 1.3 0 0 1-.4.7 3.7 3.7 0 0 1-4.3 1.2c-.8-.2-.8.2-.8.8v5.4a3.3 3.3 0 0 0 0 1 17.7 17.7 0 0 0 .6 3.7c.4 2.6.3 5.2 1 7.7 0 2.7-.4 5.3-.7 8-.3 3-1 6.3-1.2 9.4l-.5 1.4c-.1 1-.2 1.7.8 2.2.4.2.7.7 0 1-1.8.8-1.7 2.4-1.7 4-1.4 7-2.3 14.2-3.4 21.3-.2.6-.1 1.3-.7 1.7a1.6 1.6 0 0 0-1.4 1.6 13.9 13.9 0 0 1-.3 1.6c-.3 1.3-.7 1.5-2 1a2.4 2.4 0 0 1-.1-1.7c.5-2.2.7-4.5 1.1-6.7a44.5 44.5 0 0 1 1.4-6.6 27.3 27.3 0 0 0 .5-3.5c-.3-1.3.2-2.4.4-3.6.4-3 1-5.7 1.5-8.5a.8.8 0 0 0 0-.6v-.5c.5-2.6.6-5 1-7.6a26 26 0 0 0 .7-3v-2c.4-2 1-3.8.8-5.9v-3.2a2.1 2.1 0 0 0-1-2c.2-.1-.8-.3 0-.5a.7.7 0 0 1 1 0 13.7 13.7 0 0 1-.3-2.9c0-.7-.4-.7-1-.8-.4-.7.6-.4.6-.7a34.3 34.3 0 0 1-1-4.6c-.8-2.9-2.3-5.4-3.5-8-1.4-3.2-3-6.4-4.6-9.5a12.3 12.3 0 0 0-6.6-5.6c-6-2.6-12-4.8-18.2-6.8l-2.6-1A16 16 0 0 0 4.5 41a17.8 17.8 0 0 0-4.4-.3v-1.3a3.3 3.3 0 0 1 2-.4 19.3 19.3 0 0 0 4.4 0 1.6 1.6 0 0 1 1.6.8c-.2.4-.5.3-1 .3l2.2.6a2.7 2.7 0 0 1 .7.3 48.4 48.4 0 0 0 9 3.5 25.6 25.6 0 0 0 4.2.5 19.9 19.9 0 0 1 4.3 1.2c3.5 1.4 6.6 3.8 10 5.6 2.6 1.4 5 3 7.7 4.5.6.3 1.4.4 1.3 1.4-.5.3-1 0-1.6 0-1.4-.3-2.4.1-2.7 1.3a2.4 2.4 0 0 0 1.5 3 2.4 2.4 0 0 0 3-1.9 8.1 8.1 0 0 1 .4-2c.6-1.6 1-3.3 1.5-5 .1-.3.2-.7.7-.7z"/>
      <path d="M300 127.4c-1 .8-2.3.8-3.5 1a122.7 122.7 0 0 0-16 4.7 19 19 0 0 1-13.7 0c-2-.7-4-1.1-6-2-1-.2-1 0-1.5.9a4.7 4.7 0 0 0-.2 3.1 5.2 5.2 0 0 1-.8 4.9c-.2.3-.7.7-.2 1.2.3 0 .5.3.8.4.7 0 1-.7 1.5-1a1.3 1.3 0 0 1 1.6 0c3 1.8 4 5 5.4 8a.4.4 0 0 1-.1.3H261c-1.5-4.2-3.9-8-6-11.9a28.2 28.2 0 0 1-3.4-8.9c-.1-.8.4-.8 1-1a14.5 14.5 0 0 1 7.8 1c2.6 1 5 2 7.7 2.7a23.4 23.4 0 0 0 10.5 0 23 23 0 0 0 8-3.6 6.4 6.4 0 0 1 3-1.3 1.1 1.1 0 0 0 1-.8c.2-1.7 1.6-2.5 2.7-3.4a20 20 0 0 1 5.4-3 3 3 0 0 1 1.3-.2z" class="cls-3"/>
      <path d="M49 53a38 38 0 0 1-1.6 5c-.5 0-.7 0-.8-.4-.9-1.2-2.3-1.6-3.5-2.3-3.9-2.3-8-4.4-11.8-6.9-1.2-.7-2.5-1.3-3.7-2.1a98.4 98.4 0 0 0-10.9-4 40.2 40.2 0 0 1-5.4-1.6c-.6-.3-1 .2-1.4.3l-.5-.2c-.4-.4-1-.4-1.3-1a2.7 2.7 0 0 0-1.5-.8A17.8 17.8 0 0 1 2 39a5.4 5.4 0 0 1-2 .3V36c1-.7 2 0 3-.4 0-.5-.5-1.1.2-1.4s1 0 1.4.5c.6.8 1.6 1 2.1 1.5-1.2-.8-2.5-2-4-2.8-.8-.6-2-.2-2.7-1v-.2a1.8 1.8 0 0 1 1.4-.3 11.2 11.2 0 0 1 5 1.2.4.4 0 0 1 .2.4c-.6.4-1.2 0-1.8 0 .8.6 1.6 1 2.3 1.7a4 4 0 0 0 3.4 1c1.6-.1 3.3.6 4.9 1a51.5 51.5 0 0 1 10.9 5c6.5 3.6 12.8 7.5 19.3 11l.6.4c1.4.7 1.4.7 2-.7a.4.4 0 0 1 .6 0z" class="cls-8"/>
      <path d="M300 105c-2.5-.8-4.7-2.5-7-3.6L282.8 96a2 2 0 0 1 .8-2.7 63.3 63.3 0 0 0 5.2-4.2 3.7 3.7 0 0 1 4-.4c2.5 1.1 4.7 2.6 7.2 3.6V95c-.3.3-.6 0-1 0a1.9 1.9 0 0 0-1.5.7 8.3 8.3 0 0 0-1.9 3.6 1.9 1.9 0 0 0 3.4 1.4c.3-.3.4-1 1-1zM58.4 148.9h-17c-.7-.9-.1-1.8-.1-2.7a6.8 6.8 0 0 1 .4-1.8 11.4 11.4 0 0 0 1.2-3.5c.5-1.6 1.3-2.3 3-2a68.7 68.7 0 0 1 12.1 2.3 2.1 2.1 0 0 1 1.6 2.1 21.5 21.5 0 0 1-.7 5 1 1 0 0 1-.5.6z" class="cls-3"/>
      <path fill="#f5f3dc" d="M6.7 33.6A12.8 12.8 0 0 0 0 32.3V32c.9-.6 1.9-.3 2.7-.2a15.8 15.8 0 0 1 4.7 1.3A15.7 15.7 0 0 0 2.2 32 2.4 2.4 0 0 1 0 30.6v-2c1-.3 1.6.6 2.6.6A74.8 74.8 0 0 1 0 21.6v-1.5c1 1.6 1.3 3.6 2 5.3l1 3c1 2.1 3.3 2.7 5.3 3.5 2.6 1 5.3 1.7 7.7 3a11.3 11.3 0 0 0 2.3 1.2c.8-.2 1.4.4 2 .7l13.4 7.6 2 1a6.6 6.6 0 0 0 5 1.3c2.4-.3 4.7 0 7-.4a9 9 0 0 0 3.7-1.2c.3-.2.6-.6 1.2-.5l-.5 1.3a7.3 7.3 0 0 1-4.6 1.5c-2.4.3-5 0-7.4.6a67 67 0 0 1 3.5 2c.4-1 1-2 2.4-2.4a3.4 3.4 0 0 1 4.3 2.2l-.7 1.3c-.4-.3-.3-.7-.5-1.1a2.3 2.3 0 0 0-3-1.4 1.3 1.3 0 0 0-.4 2.3 4.3 4.3 0 0 0 1.5.9 1.8 1.8 0 0 1 1 1.3c0 1.8-.1 2-1.6 1.1-4.6-2.4-9-5.2-13.6-7.8s-8.8-5.2-13.5-7.3a37 37 0 0 0-8.5-2.4c-.2 0-.5-.2-.7 0-1.2.8-2-.2-2.8-.8l-3.8-2.8c1.2 0 2 .6 2.8.5l1.5.6-1.4-.6z"/>
      <path d="M125.8 148.9c1.8-2.8 4-5.4 5.9-8 2.3-3 4.5-6.2 7-9 2-2.2 4.2-4 6.3-6.2l.6-.4 12.5-12c.4-.4.9-.7.7-1.4l.6-.7a15.4 15.4 0 0 1 3.3-3.3l8.4-7.5c4-3.4 7.8-7 11.5-10.7a20.2 20.2 0 0 1 3.4-2.3 65.8 65.8 0 0 0 8-6.4 20.5 20.5 0 0 1 4-2.5 3.9 3.9 0 0 1-2 3.2c-2.5 1.5-4.7 3.7-7.2 5.4-.5.3-1 .8-1.5 1a32.5 32.5 0 0 0-7.6 6.3c-4 4-8.3 7.6-12.5 11.3l-4.7 4.2a3.9 3.9 0 0 0-1.2 2.4 1.3 1.3 0 0 1-1 1.3c-1.3 0-2 1-3 1.8l-12.6 12.2-2.6 2.4c-4.2 3.7-7.1 8.5-10.5 12.8l-4 5.4a1.2 1.2 0 0 0-.3.7z" class="cls-10"/>
      <path d="M300 26.9c-3.8-2.3-7.7-4.5-11.5-6.6-.7-.5-.7-.7-.1-1.2l6-4.7 5.6-4.5zm-262 122h-9.9c-.4-.5-.2-1 0-1.6a32.5 32.5 0 0 1 5-9.8 5.3 5.3 0 0 1 2.4-1.7c2-1 3.7.4 3.4 2.6-.3 2 0 4-.4 6a4 4 0 0 0 .2 1.6 5 5 0 0 1-.6 2.9z" class="cls-3"/>
      <path d="M58.4 148.9a24.2 24.2 0 0 0 1-5.2 1.9 1.9 0 0 0-1.6-2.2 87.2 87.2 0 0 0-11.7-2.3c-1.8-.3-2.4.2-2.9 2-.3 1-.3 2.4-1.3 3.2a.8.8 0 0 1-.2-.8 29.3 29.3 0 0 1 .7-4.2c.2-.7 1.2-1 1.4-1.6s-1-1-.9-1.8a3.6 3.6 0 0 1 .5-2c.4-.4 0-1.1.5-1.5.5.5.3 1.2.3 1.8 0 1.4.4 1.7 1.6 2l19.6 3.2c.6.1 1.3.1 1.7.7a1.4 1.4 0 0 0 1.7 1.2.4.4 0 0 1 .3 0c.4.2 1 .2.9.8s-.7.5-1.2.4a19.8 19.8 0 0 0-4.6-.5 2.9 2.9 0 0 0-3 2.8l-.8 4zm-20-3a1.8 1.8 0 0 1-.3-1.3c.5-2.1 0-4.2.5-6.3a2 2 0 0 0-2.8-2.3 5.6 5.6 0 0 0-2.7 2 33.8 33.8 0 0 0-4.7 9.6 3.4 3.4 0 0 0-.3 1.3h-2.5a37.9 37.9 0 0 1 3.5-8.6 25 25 0 0 1 7-7.6c2.5-1.8 4.4-3.9 5-7a7 7 0 0 1 1-2.5l-1 6.7c-1 2-2.7 3-4.2 4.3 1.1.4 2.6.6 3 2.2v1.8c.4 1.8-.4 3.5-.5 5.3a8 8 0 0 1-.2 1.5c-.1.4-.2.9-.8.9z" class="cls-5"/>
      <path fill="#96cddb" d="M196.8 148.9a58.5 58.5 0 0 1 5.3-3.7l5-3.4c.6-.5 1-.4 1.4.3l4 6.8z"/>
      <path d="M258.5 141.9l-.5-.7 1.4-1.8a2.8 2.8 0 0 0 .5-2 26.8 26.8 0 0 1-.2-3c0-.7.3-1.3 1-.9.8.5 1.8.3 2.6.8s1.7-.2 2.5-.2c1.5 0 2.7.7 4 1 .4 0 .4.4.4.7a1.8 1.8 0 0 0 .4 1.4c-.5.3-.8 0-1.2-.2a15.8 15.8 0 0 0-7.6-2.6c-.4 0-.7.1-.5.6a5.7 5.7 0 0 1 .2 2c0 .3 0 .7.4.8 1.2.4 2 1.4 3 2a9.4 9.4 0 0 1 3 3.9l.9 1.8c0 .2.3.5.5.5 1.4-.2 2.6 1 4 .7a.9.9 0 0 1 1 .4l1.4 1.8h-2.5c-1-.4-1.4-1.5-2.5-1.7-.3 0-.6-.3-1 0s0 .5.2.8.3.6 0 .9h-2.5c-1-2-1.7-4.4-3.3-6.2-.8-.9-1.7-1.5-2.5-2.3-.5-.5-1 0-1.3.2-.6.4-1 1.2-1.8 1.3z" class="cls-12"/>
      <path d="M94.6.1c0 2.2 1 4 1.5 6.2.7 2.7 1.7 5.4 2.4 8.2a1.3 1.3 0 0 0 1.3 1.1c.8 0 .5-.6.7-1 .5-1.2 1-2.4 1.8-3.5a1.6 1.6 0 0 1 2.5-.6c1.8 1.3 2.3 2 1 3.7a7.6 7.6 0 0 0-1.5 5.3 1.3 1.3 0 0 0 .4.9 1 1 0 0 1 .2 1.5 1.7 1.7 0 0 1-1.7.7c-1.6-.2-1.8 0-2.4 1.5a14.8 14.8 0 0 1-1.2-4c.5-.2.8.2 1 .3a3.4 3.4 0 0 0 1.5.3c.4 0 .8 0 .9-.7s-.2-.7-.7-.8a3.3 3.3 0 0 1-2.7-2.6c-.1-.7-1-.5-1.3-.7-1.5-5.3-3.2-10.4-4.5-15.8z" class="cls-3"/>
      <path d="M44.4 107c.6.8 0 1.6 0 2.4l-1.6 9.8a2.2 2.2 0 0 1-.2.5c-3 .6-6-.5-9-.9L21.2 117l-12-2-9-1.4v-1c2.6 0 5.2.7 7.8 1l10.9 1.8c4.7.7 9.4 1.5 14.2 2.1 2.6.4 5.3 1 8 1 .8 0 1.2 0 1.4-1 .5-3.6 1.2-7 2-10.6z" class="cls-10"/>
      <path d="M.1 75.3l6.3 5c.3.3.5.4.2.9l-6.5 9z" class="cls-13"/>
      <path d="M28.9.1v5c0 .6 0 1-.8 1a35.1 35.1 0 0 0-5.8-.2c-1 0-1.3-.3-1.2-1.3a18.9 18.9 0 0 0 0-2V0z" class="cls-14"/>
      <path d="M38.4 145.9c.8-.9.5-2 .7-3l.8-4.7c1 .1 1.6 0 1.6-1.3a13.3 13.3 0 0 1 .3-2c.2-1 .7-1.3 1.6-1a2.7 2.7 0 0 1 0 1 1.8 1.8 0 0 0 .7 2.4c.5.4.7.8-.2 1a2 2 0 0 0-1.4 1.7c0 1.5-.4 3-.6 4.4l-.5 4.5H38z" class="cls-4"/>
      <path d="M.1 62.5c1.6.5 2.5 1.8 3.7 2.7.8.5 2 1 2.1 1.9s-1 1.4-1.6 2.2c-.6 1-2 1.3-2.5 2.5 0 .3-.5.2-.7 0s-.5-.6-1-.5z" class="cls-13"/>
      <path fill="#bdd9f6" d="M152.3.1a4.5 4.5 0 0 0 .5.3c1.7.6 2 1.2 1.6 3a3.7 3.7 0 0 0 .8 3 1.2 1.2 0 0 0 1.5.5 1 1 0 0 1 1.2.7 1.8 1.8 0 0 1-.6 1.7c-.5.4-1 0-1.3-.4-.2 0-.4-.4-.6-.4-2-.3-2.6-2-3-3.6a4.5 4.5 0 0 0-2-2.6c-.9-.5-1.8-1-1.8-2.2z"/>
      <path d="M186 .1a3.6 3.6 0 0 1 .6 3.1 3.4 3.4 0 0 1-3.4 2.4A4 4 0 0 1 180 2c0-1.1 1.1-1.2 1.5-2z" class="cls-3"/>
      <path d="M206.5.1c-1.1 2.3-2.2 4.7-3.6 7-.8-.5-.9-1.5-1.6-2a9.9 9.9 0 0 1-1-5z" class="cls-16"/>
      <path d="M300 99.7l-.5.8a2.1 2.1 0 0 1-2.7 1.2c-1.4-.6-2-1.7-1.4-3a15.7 15.7 0 0 1 1.7-3.1 2.3 2.3 0 0 1 2.9-.6z" class="cls-14"/>
      <path d="M196.3.1c1.2 1.3 1.2 1.3 0 2.9-.4.6-.7 1.5-1.2 1.7s-1.1-1-1.7-1.3A18.9 18.9 0 0 1 190 .1z" class="cls-3"/>
      <path d="M.1 32.6a6.8 6.8 0 0 1 4.5 1.7l2.8 2c.2.2.5.3.3.6a.4.4 0 0 1-.7 0c-.6-1-2-1-2.7-2-.2-.4-.7-.7-1-.3s0 .7.3 1a4 4 0 0 1 .2.5H0z" class="cls-17"/>
      <path d="M.1 21.6c.9 1 1 2.4 1.4 3.5a24.8 24.8 0 0 0 2 4.7 18.3 18.3 0 0 1-3.3-1.2z" class="cls-3"/>
      <path fill="#dbead1" d="M116.3 5.7a3.5 3.5 0 0 1-4.7-2.8 5.9 5.9 0 0 1 .2-2.8h.3a5 5 0 0 0 3.5 5.2l.7.4z"/>
      <path fill="#c0e1aa" d="M258.5 141.9l1-1c1.4-1.3 1.4-1.3 3 0a14.6 14.6 0 0 1 5 8h-.3l-2-4.3c-.7-1.8-2.4-2.7-3.7-4-.6-.5-1 .4-1.6.7s-.7 1-1.4.6z"/>
      <path fill="#bde1a3" d="M270 148.9c-.1-.8-.8-1.4-.5-2 .2-.5 2.3.3 2.8 1l1 1z"/>
      <path fill="#fbfbfb" d="M3 .1L.2 3.4V3C.1 2-.2.7.3.2S2 .3 3 .3z"/>
      <path d="M.1 30.6c1.6 1.4 3.7 1 5.5 1.7a12 12 0 0 1 3 1.4 19.4 19.4 0 0 0-8.5-1.6z" class="cls-8"/>
      <path fill="#bccfad" d="M.1 145.4a17 17 0 0 1 3.8 3.5H3a6.2 6.2 0 0 1-2.8-2.5z"/>
      <path d="M163.8.1a1 1 0 0 0 0 1 1.1 1.1 0 0 1-.5 1.4c-.4.2-.6 0-.8-.3-.5-.4-.8-1-.4-1.5a2 2 0 0 0 .2-.6z" class="cls-23"/>
      <path fill="#fdfdfc" d="M.1 146.4l2.8 2.5h-.3c-.8 0-2 .3-2.4 0s0-1.7 0-2.5z"/>
      <path d="M271.2.1l-1 2.1c0 .2-.2.4-.4.3s-.3-.3-.3-.5V.1z" class="cls-25"/>
      <path fill="#daeace" d="M173.3.1c-.1.3-.3.6-.5.5-.6-.2-.8 0-.8.5 0 .3.2.8-.2.9s-.6-.4-.8-.8a2.1 2.1 0 0 1-.2-1z"/>
      <path d="M199.8.1v.7c0 .4 0 1-.2 1.4a.2.2 0 0 1-.4-.1c0-.6-1-1-.4-1.7V0z" class="cls-16"/>
      <path d="M200.3 108.2a15 15 0 0 0-1 2.3c-.2 1-.7 1-1.4.7l-5-1.4c-1-.2-1.3-.6-1-1.5l2-7.6c.1-.4.4-.8-.3-1-.4-.2-.3-.5-.2-.8s.5-.3.8-.2l5.5 1.3c1.8.4 2 .3 2 2.2v.8a39 39 0 0 1-1.4 5.2z" class="cls-13"/>
      <path fill="#eadd9c" d="M218.6 66l-.8.7c-2 .8-3.8 2-5.6 3l-2 .9c1.1-1.2 2.7-1.7 4-2.6l.6-.4a6.8 6.8 0 0 1 3.8-1.6z"/>
      <path d="M45 84.2l-.2 3.8c0 .2 0 .4-.2.5L44 93c0 .7-.3.8-1 .6A96.3 96.3 0 0 1 30.2 90l-6.6-2.3c-.7-.2-.7-.5-.5-1.1l9.2-27.8c.3-.7.4-1 1.3-.4 1.2 1 2.9 1.7 3 3.6a.5.5 0 0 0 .4.3c2.4.3 3.3 2.4 4.3 4.1A26.2 26.2 0 0 1 45 79a18.6 18.6 0 0 1 .3 2.5c-.4 1 0 1.8-.3 2.7z" class="cls-13"/>
      <path d="M9.9 42.3c3 .7 5.8 2 8.7 2.8C23 46.4 27 48.4 31.3 50a13 13 0 0 1 7.2 7.5c2 4.3 4.2 8.5 6 13a22.1 22.1 0 0 1 2 7.3c-1-.2-1-1-1-1.6-.2-3.1-1.6-5.8-3-8.5-2.2-5.5-5.7-10.3-9-15.2-1-1.3-2.5-1.5-3.7-2-5.7-3-11.6-4.8-17.5-7a5.8 5.8 0 0 1-2.4-1.2z" class="cls-28"/>
      <path d="M44.6 88.5a.5.5 0 0 1 .2-.5c.7.3.5-.3.6-.5.3-1.6.1-3.2.7-4.8.9 0 1.3.3 1.3 1.2V88c-.2 2-1 4-.7 6-.1.6.2 1.2-.3 1.8-.2 0-.3-.3-.5-.3-.7-.6-1.3-1-.9-2.3.4-1.1 0-2.6 0-3.9a.7.7 0 0 0-.4-.8z" class="cls-29"/>
      <path fill="#c0d1b3" d="M40.6 97.7l1.8.3a1 1 0 0 1 1 1.5 42.7 42.7 0 0 0-1.3 6c0 .3 0 .7-.5.8 0-.4-.6-.5-.5-1 .5-2 .2-4.1 1.4-6 .3-.4 0-.5-.4-.7a3.8 3.8 0 0 0-1.5-.1c-.3 0-.9 0-.8-.5s.6 0 .8-.3z"/>
      <path d="M46 78.5c.8-.5 1-.2 1 .8a4.6 4.6 0 0 0 .2 1.7c.5 1.2 0 1.4-1 1.2a12.6 12.6 0 0 1-.3-3.7z" class="cls-29"/>
      <path fill="#c3d1b5" d="M45.8 95.5c.4-.3.5 0 .6.2 0 1.7-.6 3.2-.8 4.8-.3 2-.2 4-1 6-.5-.4 0-.8 0-1.3a74.1 74.1 0 0 1 1.4-9 1 1 0 0 0-.2-.7z"/>
      <path fill="#bccfae" d="M39 97.8c0 .4-.4.4-.8.4-.6 0-1.3-.7-1.7.2 0 .1-.5 0-.6-.2a.7.7 0 0 1 .2-.8 6.3 6.3 0 0 1 2.8.2.6.6 0 0 1 .1.2z"/>
      <path d="M45 84.2c.2-.9 0-1.8.4-2.7-.1 1 .2 2-.3 2.7z" class="cls-29"/>
      <path d="M191.1 104c-.3 0-1 .3-1-.6 0-.3 0-1 .6-1 .4 0 1.8 1 1.8 1.2s-.2.4-1.4.4z" class="cls-28"/>
      <path d="M215.8 62.7c-5.7 3.1-11 6.7-16.5 10a23.4 23.4 0 0 1-3.8 1.6c-.6.1-.8-.3-1-.8a1 1 0 0 1 .7-1c1-.3.8-1 .6-1.7a21.6 21.6 0 0 0-2-4.7 7 7 0 0 1-1.3-3.2c0-1-2.4-2.2-3.2-2-.3 0-.4.3-.5.6-.8 2-1.2 2.2-3.3 2.4-1.1 0-2 .2-3-.6-.5-.4-1.8.2-2.2.8l-2 3a1 1 0 0 1-1 .6 1.1 1.1 0 0 1-1-.8c.7-1.5 1.9-2.7 2.5-4.2l.4-.7a9 9 0 0 1 3.3-3c.9-.7 1-1 0-1.8-1.2-1-4.7-1-6 0l-3 2.8a2.7 2.7 0 0 0-1.4 2.6 1 1 0 0 1-.2.7.8.8 0 0 1-.9 0 1.4 1.4 0 0 1-.6-.7 6 6 0 0 1 1.2-6c.9-1 1.6-2 2.6-3 .6-.5.6-1.1 0-1.7s-1-.4-1.6.1a5.9 5.9 0 0 1-.7.7c-.5.4-1 .7-1.7.2a1.5 1.5 0 0 1-.5-2 11.8 11.8 0 0 1 1-1.4.8.8 0 0 0 0-1c-.4-.4-.7-.2-1 0-1.7 1.5-3.7 2.8-4.9 4.7a1.3 1.3 0 0 1-1.6.8c-.8-.2-.7-.8-.7-1.4v-.2c-.6-2 .6-3.3 2-4.5a7.2 7.2 0 0 0 2.3-3.5c.2-.5.2-1-.3-1.4s-.9 0-1.2.4l-1.5 1.7c-.5.6-1.3 1.4-2.4 1.4-.9-.6-2-1-2.3-2.2 0-1.4 1.2-2 2-3 3.4-4.7 7.3-9 10.6-14 .6-.2 1 .3 1.4.6a14.8 14.8 0 0 1 1.9 2.4 11.9 11.9 0 0 0 3.6 3c3.9 2.2 7.7 4.4 11.3 7a3.2 3.2 0 0 0 4.1 0l3.5-1.9c1.5-.8 2-.7 2.8.7.6 1 .5 1.3-1 2.3a12.2 12.2 0 0 0-3 2.6 1.6 1.6 0 0 0-.2 2c.3.3.4.4.9 0 1.5-1 1.5-.8 3 .2a70.6 70.6 0 0 1 9 7.3 7.2 7.2 0 0 1 1.8 3c.2.4.4 1 1 .7a1 1 0 0 1 1 .5l2.8 4c.3.3.5.7.2 1z" class="cls-2"/>
      <path d="M153.3 104.7c.4 1.3.2 2-1.2 2.6-4 1.7-8 3.9-12.3 5.2l-15.6 5c-3.3 1.2-6.6 2-9.9 3.4a3.5 3.5 0 0 0-1.9.4 3 3 0 0 1-3.2-1 10.2 10.2 0 0 1-1-1.3 12.6 12.6 0 0 0-5.4-4.7 1.3 1.3 0 0 1-.8-1.9c1.4-3.7 3-7 6.2-9.6.4-.3.6-.8 1.2-.7.5.7 0 1-.4 1.4-1.2 1.6-1.2 1.6.5 2.7-.8-.5-1-1.1-.3-1.8a1 1 0 0 1 1.8 0c.5.6 1 .4 1.5-.2a19.6 19.6 0 0 1 2-1.8c1.7-1 3.2-2.4 5-2.8.5 0 .8-.2.7-.6a9.7 9.7 0 0 0-.8-2.4c-.2-.4-.6-.3-1-.1a17 17 0 0 0-5 3c-.6.4-.3.7 0 1s1.1 1 1 1.7c-.3.3-.5 0-.7-.1a5 5 0 0 1-1.3-1.2c-.4-.7-1 .3-1.4-.3a10.8 10.8 0 0 1 4.6-4.6c2.8-1.6 6-2 9.2-2.6a8.2 8.2 0 0 1 5.6.5 1.3 1.3 0 0 0 1.5-.2 5.7 5.7 0 0 1 2-1c2.3-.6 4.4-1.7 6.5-2.4 2.5-.8 5.2-.9 7 1.6l2 2.7a5 5 0 0 1 1.2 3.8c-.2 2 1 3.5 1.5 5.3 0 .6.9.6 1.2 1zm62.5-42c-.8-2-2.3-3.3-3.2-5.1a.5.5 0 0 0-1-.1c-.4.4-.6 0-.8-.3-1-3.6-4-5.4-6.7-7.6-1.4-1.2-3-2.1-4.5-3.3-1-.8-1.8-.8-2.6.2a6.6 6.6 0 0 1-.6.5l-.3-.6c-1-1.8-.8-2.6 1-3.8.9-.6 1.7-1.3 2.7-1.8.6-.4.9-.8.3-1.5s-.6-1.6-1.8-1l-5.8 3.2c-.5.3-.9.4-1.4 0-2.4-2-5.2-3.3-7.8-5-2.2-1.6-4.8-2.7-7-4.4a20.7 20.7 0 0 1-2.4-2.7 7 7 0 0 0-2.4-2c2.3-3.3 4.5-6.7 7.5-9.3 3.2-3 6.9-4.3 11.2-3.2 2 .5 3.5 1.8 5.1 3a18.7 18.7 0 0 1 6 7.7 13.3 13.3 0 0 0 2.6 3 13.2 13.2 0 0 1 2.8 4c-.3 1.4-1.5 1.7-2.5 2.3-.3.2-.7.2-1 .3a1.3 1.3 0 0 0-.4 2.2c2.6 2.6 4.9 5.4 8 7.4a7.4 7.4 0 0 1 3.3 4 31.6 31.6 0 0 0 2.3 5 15 15 0 0 1 1 3.7 12.6 12.6 0 0 0 1.1 3.5zM103 28.4c1.4 1 2 2.6 3 3.8.5.7.8.7 1.5.2l1-.6a2.7 2.7 0 0 1 3-.4c1.6.7 3.2-.2 4.8-.4 2-.4 2.2-.4 2.5 1.7.3 1 2 1.7 3.5.9l6-3.5a4.6 4.6 0 0 1 3-.4 1 1 0 0 1 1 1.2c-.4 2 .8 4 .5 6.1a1.3 1.3 0 0 0 .8 1.3l3.4 2.3a1.4 1.4 0 0 1-.1 2.3c-1 .4-1.3 1.5-2 2-.4.4 0 .5 0 .8 2 1.7 2 1.7 3.6-.3l7.6-9.8c.2-.6.3-1.3 1.2-1.3a14.2 14.2 0 0 0 2.6 2.4 16.8 16.8 0 0 1 1.8 1.6c1 1 1.7 1 2.5-.3l1.6-2.6c.8-1.2 1-1.3 2-.3l1.5 1.2a29.5 29.5 0 0 1-4 5 .5.5 0 0 1-.6 0c-1.4-1-1.3-1-2.4.3l-6 7a18.9 18.9 0 0 1-3.4 3 15.9 15.9 0 0 0-4 3.9c-.4.5-.7 1-1.6.8-.5-.2-.6.4-.7.7a2.3 2.3 0 0 1-3 1.6 1.7 1.7 0 0 0-1.5.7 2.1 2.1 0 0 1-1.7-.2c-.2-.3 0-.4.2-.5a14.4 14.4 0 0 1-4.2-.3c-1.3-.2-1.6-.6-1.6-1.8a6.9 6.9 0 0 1 0-1c0-1-.2-1.7-1.2-1.7a.9.9 0 0 1-.6-.3 1.7 1.7 0 0 0-2.5-.2c-.3-.2-.5-.6-.7-1a1.1 1.1 0 0 0-.2-1c-1.4-1.8-2.5-3.8-4-5.6a.4.4 0 0 0-.3-.1L105 31.5a11.1 11.1 0 0 1-1.8-3.1z" class="cls-3"/>
      <path d="M109.6 102.2a13.8 13.8 0 0 0-4.5 4.6 27.6 27.6 0 0 0-2.7 5.5c-.3.9-.4 1.4.7 1.9a11.3 11.3 0 0 1 5.4 4.7c1.2 2 2.8 2.7 5 2 .2 0 .5-.3.8 0l-2.5 1a2 2 0 0 1-2 0c-.4-.2-.8-.4-1 .1-.7 1.8-2.5 2-4 2.7 0-.8.7-1 1.1-1.4 1.5-1.2 1.7-2.3.5-3.8a11.3 11.3 0 0 0-7-4c-4.2-1-8.5-1.3-12.8-2l-2.8-.4c-.7 0-1 .2-1.2 1a51.3 51.3 0 0 1-2 7.5c-1 3.4-1.3 7-2 10.6l-.8 5.8c-.2 1.4-.4 2.6 1.2 3.3a.5.5 0 0 1 .3.6 1 1 0 0 0 0 .2.8.8 0 0 1-1 .3c-2.1-1-4.3-.3-6.4-.5-.5 0-1.2.2-1.2-.6 0-.5.6-.7 1.1-.7h2.3c1.7 0 2 0 2.2-1.7L78 126c.2-1.6.7-3.3 1-5l1.4-8.3c0-.5-.2-.6-.6-.7l-5.9-1c-.6.4-1.2.2-1.8 0-4.2-.7-8.6-1.2-12.8-2a8 8 0 0 1-1.2-.2 58.5 58.5 0 0 0-6.7-1.1 3.3 3.3 0 0 0-3.6 1.9c-.2.3-.2.7-.6 1-.6-2 0-3.3 2-4.2-.3-.7-1.6-.6-1.4-1.7.2-.7 0-1.6.7-2.2v.2c.2 2 1.5 2.2 3 2.5 9.2 1.3 18.3 2.8 27.4 4 1.5.3 1.5.3 2-1.1a52 52 0 0 1 2.6-6.8 5.2 5.2 0 0 1 1.5-2 10 10 0 0 0 3-4.1c1.6-3.6 3.4-7.1 4-11.1.3-1.7.8-3.4-.6-5a.9.9 0 0 1 1.5-.5 2.2 2.2 0 0 0 1.8.2c.6-.1 1.3 0 1.2.9-.3.8-1.5.7-1.7 1.7a46 46 0 0 1-5.8 17 4.4 4.4 0 0 1-.5 1c-2.6 2.5-3.6 6-4.4 9.3-.3 1.2-.2 1.3 1 1.5l14.3 2.2c.7.1 1 0 1.2-.7 1.5-5.3 5-9.1 9.4-12.2a13.4 13.4 0 0 0 2.5-2.2 13 13 0 0 1 7-4 30.8 30.8 0 0 1 8.5-1.3 5.3 5.3 0 0 0 2.5-.7 2.1 2.1 0 0 1 2 0 2.6 2.6 0 0 0 2.2.1 17.2 17.2 0 0 0 7.5-3.7 5.1 5.1 0 0 1 1.5-.8c1-.4 1-.9.4-1.7l-8.3-10.4a5.1 5.1 0 0 0-6.3-1.7 67.2 67.2 0 0 1-9.7 3.5l-4.4 1.3a2.1 2.1 0 0 1-1.8.1c-.2-1 .6-1 1-1a53.9 53.9 0 0 0 7-2.4l5.6-2.4a20 20 0 0 1 2.5-1c3.6-1 6 .7 8 3.4l7.6 9.4c.3.4.5.8 1 .7-3-3.8-6.2-7.7-9.2-11.8a7.4 7.4 0 0 1-1.5-5.7 6.8 6.8 0 0 1 .5-1.4 6.6 6.6 0 0 1 2-2l4-3.5c.4-.3.7-.7 1.2-.5.1 1.2-.8 1.7-1.5 2.3a41.8 41.8 0 0 0-3.3 3.3c-1.6 2.3-1.6 4.2 0 6.5 2.7 3.6 5.6 7 8.3 10.5.8 1 1.3 1 2.4.3 1.8-1.3 3.3-3 5.3-4 .5-.1.4-.6.4-1a23.8 23.8 0 0 1 0-5.3 11 11 0 0 1 6.9-9 7.6 7.6 0 0 1 1.2-.5 20.4 20.4 0 0 1 6-.7 6.1 6.1 0 0 1 2.6.7l.7.3a7 7 0 0 1 4.8 3.5 2 2 0 0 0 .7.7l1.4.8c3.2 2 7 2.3 10.5 2.9a11.3 11.3 0 0 1 4.8 1.5 1.7 1.7 0 0 1 .6.8l1 .8c.1 1-.7 1-1.3 1.2-3-2-6.7-2-10-2.6a1 1 0 0 0-1.4.6 12.2 12.2 0 0 1-4.8 4.8 21.3 21.3 0 0 0-6.5 6.4c-1 1.5-1.3 1.6-2.8.6a35.2 35.2 0 0 0-6-2.5l-2.6-1a3.2 3.2 0 0 0-2-.2 6.8 6.8 0 0 0 1.4 2l5 7a21.4 21.4 0 0 1 2 2c.2.6.7.5 1 .2 2.8-1.9 5.8-3.4 8.3-5.7a147.6 147.6 0 0 1 13.3-11.3 6.7 6.7 0 0 1 2-1.2c1.3-.3 2.4.3 2.5 1.4l-1 .5a5 5 0 0 0-2 .8A125.5 125.5 0 0 0 176 89.4a36.4 36.4 0 0 1-5 3.5c-3.2 2.2-6.6 4.4-9.7 7-2.2 1.6-4.4 3.5-7.1 4.3l-.8.5a1.5 1.5 0 0 1-1.7-1.5 2.5 2.5 0 0 0-.3-1 8.6 8.6 0 0 1-1-4.9 4 4 0 0 0-1-2.5c-1-1.3-2-2.7-3.3-3.8a4 4 0 0 0-2.2-.8c-3-.6-5 1.6-7.6 2.2-1.5.4-3.2.7-4.4 2a1.1 1.1 0 0 1-1.3 0c-1.8-1-3.7-1-5.6-.7a27 27 0 0 0-9.2 2.6 12.8 12.8 0 0 0-4.6 4.4 1.5 1.5 0 0 1-1.5 1.5z" class="cls-5"/>
      <path d="M79.4 141.9c-2.6-1-2-3-1.8-5 .7-3.8 1.2-7.7 1.8-11.5a42.3 42.3 0 0 1 1.4-5.4 31.9 31.9 0 0 0 1.6-6.6c0-1 1-.7 1.4-.6l4.9.7c3.9.7 7.9 1 11.7 2 2.5.7 5 1.7 6.4 4 1.2 1.7 1 2.8-.7 4l-1.3 1.2a78.7 78.7 0 0 0-9.7 6.5 34.9 34.9 0 0 0-5.2 5c-2.2 2.6-4.6 5.1-8.3 5.7h-2.2zm130-110.5l1-.5a2.2 2.2 0 0 0 0-.2c-1.8.5-2.9-.4-4-1.5a47.7 47.7 0 0 1-3.9-4.5c-1.8-2.4-1-4.6 1.9-5.3 1.3-.4 2.6-.8 4-1 2.4-.4 4.3.9 6 2.3a128.9 128.9 0 0 1 13.8 12.7c2.1 2.2 3.5 5 5.3 7.4 2.1 3 3.3 6.2 5.2 9.2a2.7 2.7 0 0 1 0 3 3 3 0 0 1-2.8 1.5 3 3 0 0 1-2-1.2c-1-1.3-2-2.8-3.3-4a8 8 0 0 0-5-2.7c-1.2-.1-2.4-.4-3.5-.6-.6 0-.6-.4-.7-.7a13.8 13.8 0 0 0-3.4-4.8l-7.9-8c-.4-.2-1-.5-.8-1.2zM279 94.2a89.5 89.5 0 0 1-10-4.9 45.6 45.6 0 0 1-9.1-7.3c-.6-.7-1.2-1.3 0-2 .3-.2.5-.5.2-.8a.7.7 0 0 0-1 0c-1 .8-1.4.2-2-.6-.7-1.3-1.6-2.5-2.4-3.7-.6-.9-1-.8-1.4.3l-2-3.2c0-1.4-.7-2.7-1-4a6.1 6.1 0 0 0-2.2-4 7.8 7.8 0 0 1 4 2 18.8 18.8 0 0 0 4.6 3 240 240 0 0 1 21.8 11.6c2 1.2 3.8 2.6 5.6 4a3.7 3.7 0 0 1 .6 5.3 13 13 0 0 1-5.7 4.3zm-54.7-69c1.3-.6 2.2.4 3 1l16 8.4 1.5.8c-.2 1.3-1.1 2.2-1.8 3.3-1.5 2.4-1.5 2.4.3 4.5l.6.7a1 1 0 0 0 1.6.2l5.4-3.8c1-.7 1-.9 0-1.4l-4.9-2.5c-.5-.3-1-.5-1.2-1 .8-1 .8-1.8-.5-2.3-.5-.2-.4-.5-.2-.9l5.5-10.5c.4-.7.8-.3 1 0l8.5 4.6 9 4.7.8.5a51.5 51.5 0 0 1-4.6 3.8c-1.8 1.6-3.8 3-5.7 4.6a1.3 1.3 0 0 1-1.8.1l-1.5-1a1.7 1.7 0 0 0-2.7.6l1.7 1c1 .8 1 1.8 0 2.6l-8.3 6.6c-2.3-.4-3.7-2-5-3.8-3.3-4.8-7.1-9.4-10.7-14a69.7 69.7 0 0 0-5.2-5.7c-.3-.4-.8-.6-.8-1.2zM193.8 76a2 2 0 0 0-3-.8 70.9 70.9 0 0 0-6.1 4.5c-3.9 3.3-7.6 7-11.6 10a60 60 0 0 1-5.6 3.6c-.4.3-.9.4-1.2-.1-1-1.7-2.6-3-3.7-4.7l-4.3-6c-.3-.4-.7-.8-.5-1.2s.8 0 1.2 0a67 67 0 0 1 7.1 2.4 10.1 10.1 0 0 1 3.3 1.6c.7.6 1.1.4 1.6-.3a22.8 22.8 0 0 1 6.2-6.6l1.6-1a9.7 9.7 0 0 0 4-4.5c.2-.4.4-.5.8-.4a64 64 0 0 1 8 1.4 7.5 7.5 0 0 1 2.7 1.6.8.8 0 0 1-.5.5z" class="cls-3"/>
      <path d="M209.3 31.4l7.8 7.9A18.9 18.9 0 0 1 222 46a14 14 0 0 0 1.8 3.7 3.3 3.3 0 0 1 1 1.5l2 4c.2.5.5 1 .2 1.5a5.8 5.8 0 0 1-2 1c-.7 0-.8-.6-1-1l-2.6-5.8c-.4-1.1-.6-1.2-1.7-.7-2.2 1-2.2 1-1.6 3.2A22.6 22.6 0 0 0 220 59a1 1 0 0 1 .1 1.3l-1.5.7c-1.2-.6-1-2-1.4-3a25.8 25.8 0 0 1-.7-3.2 4.4 4.4 0 0 0-1.3-2.6 1.8 1.8 0 0 1-.8-1.5c.2-1.7-1-2.7-1.7-3.9a10.3 10.3 0 0 0-3-2.7 23.4 23.4 0 0 1-5.7-5.3 5.9 5.9 0 0 0-.9-1c-.5-.3-1.1-.8-1-1.6a1.9 1.9 0 0 1 1.6-1.5 6.2 6.2 0 0 0 3.2-2.1l1-.8c0-.2.3 0 .5-.2a1.6 1.6 0 0 1 1-.3z" class="cls-10"/>
      <path d="M234.3 73.3c-1.7-2.6-2.6-5.6-4-8.4-.4-.7.2-.8.5-.9a13.4 13.4 0 0 0 3.2-1.7 3.1 3.1 0 0 0 1-1c1.9-.5 3.6.4 5.4.8a4.4 4.4 0 0 1 3.6 3.7c.4 2.2-.6 3.8-2.6 5-1.6 1-3.3 1.6-5 2.5a2.8 2.8 0 0 1-2 0zm-59.1-52a40.2 40.2 0 0 0 4.7-17.5c1.6 2 3.3 3.1 5.5 1.7A3.6 3.6 0 0 0 187 .8a20.4 20.4 0 0 1 3.2 3c-2.5 1-3.4 2-3 3.4s1.2 2.3 3.6 2.5c0 .5-.4.6-.8.8l-6.1 3.2a22.2 22.2 0 0 0-5 4 42.9 42.9 0 0 0-3.7 3.7zM230 78.8h-2.1c-2.9.3-6-2.8-5-6a7 7 0 0 0 .3-2.5c-.2-2 .4-3.4 2.2-4.2a9.1 9.1 0 0 1 4 5.6 47.7 47.7 0 0 1 1 6c0 .5-.2.8-.4 1z" class="cls-3"/>
      <path d="M194 81c0 .7-.6 1-1 1.4a76 76 0 0 1-7.2 5.4 25.4 25.4 0 0 0-5.3 4.3c-4.2 4.2-8.7 8-13.1 12-2.7 2.3-5.3 4.8-8 7a2.6 2.6 0 0 1 1.3-3.3 16.1 16.1 0 0 0 3.8-3.1A110.5 110.5 0 0 1 176.3 94c3.6-3 7-6 10.5-8.8a17.1 17.1 0 0 1 5.5-3.3c.6-.2 1-.8 1.7-.9z" class="cls-33"/>
      <path d="M132.3 59c0-.2-.2-.5 0-.6a1.6 1.6 0 0 1 1-.1c1.7.3 2.7-.4 3.2-2 .2-.5.5-1 1.1-.3.3.3.5 0 .6-.2 2-3 5.2-4.7 7.6-7.2 2-2 3.7-4.2 5.5-6.3l.6-.8c1.6-1.7 1.6-1.7 3.4-.2 0 1-.3 1.7-1.5 1.6-.6 0-1 .6-1.2 1l-3.8 4.6c0 .5-.4 1-.6 1.3a8.4 8.4 0 0 1-2 2.4A35.5 35.5 0 0 1 139 58a9.9 9.9 0 0 1-6 1.3.8.8 0 0 1-.7-.3z" class="cls-25"/>
      <path d="M154 104.2a2 2 0 0 1 1.6-1c1.4-.2 2.4-1.3 3.5-2.1 1.9-1.4 3.6-3 5.6-4.3 2.7-1.7 5-3.8 8-5.3a17.2 17.2 0 0 0 4.1-3.2c4.2-4.2 9-7.6 13.8-11 .7-.5 1.2-1.2 2.2-.7l-12 9-7.3 6.3c-4.2 3.6-8.2 7.5-13 10.4l-3.5 2.3a2.1 2.1 0 0 1-3-.4z" class="cls-33"/>
      <path d="M200.8 18a4.2 4.2 0 0 1-3.1-1.2c-1.6-1.2-3.7-1.7-4.9-3.5-1-1.4-.8-2 .5-3a2.9 2.9 0 0 0 .4-.4c.5-.6.8-1.6 1.5-1.5.5 0 1 .7 1.6 1.2 1.7 1.4 3.8 2.3 5.3 4a2.6 2.6 0 0 1 .7 3 2 2 0 0 1-2 1.3zM220 60.3a45 45 0 0 1-2.6-8 1.2 1.2 0 0 1 .7-1.7c2.8-1.4 2.8-1.4 4 1.4a40.6 40.6 0 0 0 2.9 5.8 35.8 35.8 0 0 1-5 2.5z" class="cls-3"/>
      <path d="M165.8 24.1c2.9-3 4.7-6.7 6.8-10.2a20.3 20.3 0 0 0 2.3-6c.6-2.5 2-4.6 2.4-7 .3 1.2-.4 2.2-.7 3.2a38.1 38.1 0 0 0-1.3 6 29.3 29.3 0 0 1-3.4 10.3 25.5 25.5 0 0 1-4 5.2 3.7 3.7 0 0 1-2-1.5z" class="cls-34"/>
      <path fill="#fefefd" d="M148 49.5l.8-1a26.9 26.9 0 0 1 4 2.8c1 0 1.5 1 2.3 1.4 2 1.5 4 2.8 6 4.4a15.1 15.1 0 0 0 1.6 1.1A19.9 19.9 0 0 1 165 60c.4.4.7.8.3 1.4a1.1 1.1 0 0 1-1.6.5 11.2 11.2 0 0 1-1.7-1.2 20.4 20.4 0 0 1-1.8-1.4l-7-5a16.6 16.6 0 0 0-2.5-1.8l-2-1.7c-.5-.2-.9-.6-.7-1.2z"/>
      <path d="M227 56.8l-2.6-5.5-.6-1.5c0-1.6 1.3-2.3 2.6-1.6a8.5 8.5 0 0 1 2.5 1.3c1.7 1.8 2 3.6.4 5.6a3.5 3.5 0 0 1-2.3 1.7z" class="cls-3"/>
      <path d="M240.8 53.6l-4.8 3.7a33 33 0 0 0-8.8.8c1.8-1.2 3.5-2 3.6-4.2 0-1.8 0-3.6-1.7-5 1.4.6 2 1.9 3 2.8a25 25 0 0 1 1.6 2.2 3.2 3.2 0 0 0 3.8.9 3.5 3.5 0 0 0 2-4c0-.3-.3-.6-.1-.9a3.6 3.6 0 0 1 1.4 3.7zm9.7 17.2c-.7-.4-1.1-1.2-1.9-1.6-1.7-.8-3.1-.1-4.5.7a3.4 3.4 0 0 1-1.3.6 5.8 5.8 0 0 0 1.7-4 5 5 0 0 0-3.7-4.8c-.5 0-1-.3-1.6-.5a10.4 10.4 0 0 1 11.3 9.6z" class="cls-3"/>
      <path d="M155 52.8l-2.2-1.5c.3-1 1.2-1.5 1.8-2l2.4-2.5c.2-.3.5-.5.3-1s.9-1.6 1.7-1.5l2.3 2c.6.4.2.8 0 1.2a13 13 0 0 1-3.1 3c-1 1-1.9 2-3 2.3z" class="cls-25"/>
      <path d="M198.8 18.1a65.5 65.5 0 0 1-6-2.8 12.2 12.2 0 0 0-9.2-.6 3.5 3.5 0 0 1-.6 0l2.2-1.2a52.1 52.1 0 0 0 6.3-3.4.5.5 0 0 1 .6-.1c.2.1.2.3 0 .5-.6 2.4.6 3.8 2.5 5 1.4.9 3 1.5 4.2 2.7z" class="cls-36"/>
      <path d="M226.8 65.5c1-.5 1.4 0 1.8 1a44 44 0 0 0 4.9 9.4 2.9 2.9 0 0 1-.4 3c-.5 1-1.5 0-2.3-.2a26.3 26.3 0 0 0-2.2-10.4 12.1 12.1 0 0 0-1.8-2.8z" class="cls-3"/>
      <path d="M198.8 18.1a7 7 0 0 0 1.7.3 2.7 2.7 0 0 0 2.8-3.7l-.3-.9a44.1 44.1 0 0 1 6.9 4c-2.8 0-5.3 1.6-8 1.3-1-.1-2.3 0-3-1z" class="cls-36"/>
      <path d="M203.6 11.2a25.4 25.4 0 0 1-5.2-3.4c-.2 0-.3-.2-.4-.3-1.8-1.3-1.8-1.3-.6-3A4.2 4.2 0 0 0 198 2c2.7 2.6 3.2 6.2 5.5 9.1zM190 9.3a2.8 2.8 0 0 1-2.4-1.9 2.4 2.4 0 0 1 1-2.5 2.3 2.3 0 0 1 3 0c2 2 2.6 1.5 0 3.5-.5.4-1 1-1.6 1z" class="cls-3"/>
      <path fill="#e7da9a" d="M169.4 27.5c-4.5 6-9 11.8-13.8 17.5l-.4-.3L169 27.2z"/>
      <path fill="#ecdb92" d="M215.1 65.5l-24 15a203 203 0 0 1 24-15z"/>
      <path d="M201.5 24.4a32.5 32.5 0 0 0-5.6-7c2.2 1 4 2.2 6.6 2.2l-1.1 1.5c-.7 1.1 0 2.2.1 3.2z" class="cls-36"/>
      <path d="M239 57.5c1.2-.2 2-1.2 3-1.7a5.2 5.2 0 0 1 4.3 3.5 36.6 36.6 0 0 0-7.3-1.8z" class="cls-17"/>
      <path fill="#e4e3e2" d="M226.8 62c.6 1 .4 1.7-.8 2a3.5 3.5 0 0 0-1 .5 10.5 10.5 0 0 0-3.4-.5c1.7-1 3.5-1.4 5.2-2z"/>
      <path d="M175.4 12.8a36.1 36.1 0 0 1 1.6-7.5c.5 1-.4 5.4-1.6 7.5z" class="cls-34"/>
      <path d="M208.3 31.6a.6.6 0 0 1-.5.2c-1.5-1.5-3.1-3-4.6-4.7-.7-.8-1.6-1.5-1.7-2.7 1.6 2.2 3.8 3.9 5.5 6a5 5 0 0 0 1.3 1.2z" class="cls-36"/>
      <path d="M285.8 89c.3-2.4.3-2.4-1-4.6a2.7 2.7 0 0 1 1 4.6zm2 0l.5-.8c.8-1.6.8-1.6 2.5-.6a12.9 12.9 0 0 0-3 1.4zm-63.3-66.1c.5 0 1 .3.8.7-.2.5-1 .1-1.3.2l.5-1z" class="cls-3"/>
      <path d="M242.3 55.8c.2-.5.8-.7 1.2-1l.3 1z" class="cls-17"/>
      <path d="M236.7 109.6c0 .5-.4.7-.7 1s-.5 0-.7-.2l-2.4-2.2c-.4-.4-.7-.6 0-1.2s.7-.4 1.1 0a12.4 12.4 0 0 0 2.1 2 3.1 3.1 0 0 1 .6.6z" class="cls-40"/>
      <path fill="#bfe1a4" d="M232 81l1.5.5a4.3 4.3 0 0 1-.1.7 1.4 1.4 0 0 0 1 2c.1 0 .4.2.5.6-2-.2-3.5-2-2.9-3.8z"/>
      <path fill="#dcead1" d="M147.3 34.3c-.6.2-.7 1-1.2 1.3A26.6 26.6 0 0 1 144 34a2.7 2.7 0 0 0-3.2-.3c-.6.3-1.2.6-1.9.2a.6.6 0 0 0-.7 0 2.3 2.3 0 0 1-3.5-2c-.2-1.7-.2-3.4-.5-5a5.2 5.2 0 0 0-3.3-4 32.6 32.6 0 0 1-5.3-2.7 5.4 5.4 0 0 1-1.6-1.8c-.7-1.2-1-2.6-1.7-3.8a35.4 35.4 0 0 1-1.6-4.2 37.2 37.2 0 0 1 6.6 6.6A65 65 0 0 0 140 29.3a47.4 47.4 0 0 0 7 4.7l.3.3z"/>
      <path d="M52.6 44.6a9 9 0 0 1-6.1 2.2 39.1 39.1 0 0 0-5.8.3c-2.8.5-5-1.2-7-2.4-5-3-10-6-15.3-8.6a2.4 2.4 0 0 1 .3-1.6c1.4-2 1.4-4.2 1.4-6.4 0-1.1 0-1.6 1.5-1.3a93.5 93.5 0 0 0 18.5 1 5 5 0 0 1 2.7.4 1.3 1.3 0 0 0 1 0c1.6-1 3.3-.6 5-.6h7c.8 0 1.1.2 1 1A41 41 0 0 1 54 42a9.9 9.9 0 0 1-1.3 2.7zM79 71.3c.6.2 1 1.3 1.7.7s-.4-1-.7-1.6a2.9 2.9 0 0 1-.5-2.3l3-19.4c0-.6.3-1 1-.8l15 2.4a2.3 2.3 0 0 1 2 2.5c0 3-.5 5.8-.8 8.7l-.9 7.3-.5 4.8a1.9 1.9 0 0 1-1 1.4.5.5 0 0 0-.3.7c.2.3.5.4.7.2 1-1 2-.6 3 0 0 .2.2 0 .4 0a5.4 5.4 0 0 1 3.6 0c.3 0 .7.2.6.5s-.4.4-.7.4c-2.2 0-4.5.4-6.7.3a53.8 53.8 0 0 1-15.3-3.2l-5.8-2.5c-.4-.2-.8-.3-.8-.9h1a4.6 4.6 0 0 1 2 .8z" class="cls-3"/>
      <path d="M57 42.3c0 1 .7 1.1 1.3 1.3 3.1.8 6.2 1.4 9.4 2a9.7 9.7 0 0 1 3 .7c-.7 1.3-.4 1.7 1 1.7.3 0 .7 0 .7-.4s-.3-.6-.6-.7-.9 0-1-.5a75.3 75.3 0 0 1 7.5.8c1 0 2.3-.2 2.7.7.3.7-.2 1.7-.4 2.6-1 5.6-1.7 11.2-2.7 16.7-.3 2-.4 2-3.3 2.1-1.5 0-2.6-1.1-3.8-1.8-2.4-1.5-4.7-3-7.2-4.2a7 7 0 0 1-2.4-2.2c-1-1.6-1.5-3.4-2.3-5-1-2-1.5-4.2-3.3-5.8a3.7 3.7 0 0 1-.6-4.6l1.3-2.6c.1-.3.2-.8.8-.8z" class="cls-3"/>
      <path d="M63.6 63a41.3 41.3 0 0 1 7 4l4 2.2c0 1 .6 1.3 1.5 1.3a30.4 30.4 0 0 0 5.4 2.5 44.4 44.4 0 0 0 12.7 3.2 29.2 29.2 0 0 0 5.2.5l6-.3c-1.6-.7-3-.3-4.3-.4v-.3c.5-.8 1.2-.6 1.9-.6a27 27 0 0 0 11-1.4l4-1.4a6.9 6.9 0 0 0 3.6-4.9c.3-1.6.8-3 1.2-4.7 0-.4 0-.8.6-1h.5c.4.5.1 1 0 1.6l-2 7.8a57.2 57.2 0 0 0 9.1-5.8c2.9-2 5.5-4.6 7.9-6.5a13.8 13.8 0 0 1-8.3 1.1 16.8 16.8 0 0 0-2.2 0c-.5 0-1 0-1.3-.4V59a3.3 3.3 0 0 1 3.2 0h2c4.3.5 7.5-1.5 10.6-4.2l4-3.7a4.8 4.8 0 0 0 1.1-1.6c.1 1 1 1.2 1.7 1.7a4.6 4.6 0 0 1 1 1c.3.5 0 .7-.2.9-2 2.1-4 4.2-6.2 6.2-.4.3-.8.8-1.5.7-1 .2-1.4 1-2 1.6-1.7 1.5-3.6 2.7-5 4.4a43.4 43.4 0 0 1-8 6c-.4 0-.8.2-1 .5a80.4 80.4 0 0 1-12.8 5c-.4 0-.8 0-1 .5-.4.5-1.2.4-1.8.5a70.3 70.3 0 0 1-11.3 2 6.5 6.5 0 0 1-4-.5c0-1-.7-1-1.2-.6a1.5 1.5 0 0 1-1.8-.3c-.6-.5-1 0-1.3.2-.5.4-1 .2-1.6.2a44.4 44.4 0 0 1-7.6-2 13.6 13.6 0 0 1-1.7-.8 280 280 0 0 1-15.3-8.2l-3.4-2c-.7-.3-1-.3-1.4.5a7.3 7.3 0 0 1-2.4 3l-4.8 2.6a5.8 5.8 0 0 0-2.8 6.3c.3 1.6.1 3.2.4 4.8a1.1 1.1 0 0 1-.3 1.2c-.7-1-.5-2.3-.7-3.5a32 32 0 0 1-.3-4.2 4.6 4.6 0 0 1 1.7-4.3c1.5-1.5 3.4-2.3 5.2-3.3a7.2 7.2 0 0 0 2.6-2.8 1.1 1.1 0 0 0-.5-1.8c-2.4-1.4-2.8-1.3-4.1 1.2a51 51 0 0 1-4.9 7c0 .2-.2.3-.5.3s-.2-.5-.2-.8a5.3 5.3 0 0 1 1-1.7c1.7-1.8 2.7-4 4-6a.5.5 0 0 0 .4-.5c.4-.7.9-1.4 1.8-1.3-.6-.5-1.6-.6-2-1.4-.4 0-.7-.6-1-.3a18.1 18.1 0 0 1-3.3-1.8 19.5 19.5 0 0 1 1.5-5.7 1 1 0 0 1 .2 1c-.4 1-.1 1.4.9 2a23 23 0 0 1 2.6 1.3 1.8 1.8 0 0 0 1 .5c1.8 0 2.9 1.1 4 2.3s2 2 3.5 1.9z" class="cls-43"/>
      <path d="M118.3 72.5a37.5 37.5 0 0 1-11.6 3 16.3 16.3 0 0 1-3.8 0 2.5 2.5 0 0 0-1.8.3c-1.7-1.8-.8-3.8-.6-5.8l1-9.3c.6-3.3.5-6.6 1.7-9.8a5.5 5.5 0 0 1 2-2.4l4.7-3.7a1.4 1.4 0 0 1 2.2.1c2.4 2.4 4 5.3 6 8a14.6 14.6 0 0 1 1.8 2.9c-.7.1-1-.4-1.3-.8-1-1.5-2.4-2.8-3.4-4.3a6 6 0 0 0-5-2.3 2.2 2.2 0 0 0-1.1.4c-2.1 1.2-3.6 2.6-3.2 5.3a23.6 23.6 0 0 1-.2 2.5c0 .5.1.9.8.7a4.6 4.6 0 0 1 3.4.5c.1.1.4.3.5.2 1.3-1 2.7 0 4-.4a.8.8 0 0 1 .5.1c1 .4 1.8 1.3 2.8 1.7a.6.6 0 0 1 .3.7c-.3 1.1.4 1.8 1 2.6 1.7 1.7 2 5.5.6 7.4-.4.7-1 .7-1.7.8-.2.6.5 1 .4 1.6z" class="cls-3"/>
      <path d="M118.3 72.5a5.3 5.3 0 0 1-1.2-2c.7-.2 1.6.4 2-.3a6.3 6.3 0 0 0 1-2.8 6.5 6.5 0 0 0-2.2-5.7c-.2-.2-.6-.4-.4-1s.5-.7 0-1.2-1-.6-1.6 0c-.3-.4.3-1-.4-1.2-.5-.2-1-.8-1.6 0-.3.2-.5 0-.8 0-.8-.5-1.7-1-2.2.2-.2.4-.5 0-.6 0a4 4 0 0 0-4.2-.6c-.6.2-.7 0-.7-.5a62.6 62.6 0 0 1 .5-6.4c0-.4.4-.6.6-.8l1.6-1a5 5 0 0 1 6.7.7l4 5a3.7 3.7 0 0 0 1 1 8.7 8.7 0 0 0 1.9 2.1 4.4 4.4 0 0 1 1.6 3.8c-.5 2-1.1 3.8-1.4 5.7a7 7 0 0 1-3.6 5z" class="cls-13"/>
      <path d="M89.8 31.3c1.3 1.4 3 1.2 4.6 1a4.1 4.1 0 0 1 4.2 1.5l4.5 6a2.1 2.1 0 0 1 0 2.6 3.9 3.9 0 0 1-3.7 1.6c-2.2-.3-4.3-.8-6.6-1s-3.7-2-5-3.6c-.9-1.2-2-2.2-3-3.3v-.4c1.8-.7 2.4-2.7 3.8-3.7.4-.3.6-.8 1.3-.7z" class="cls-44"/>
      <path d="M58 37.8l1-6.4a11.4 11.4 0 0 0 0-2.9c0-1 .5-1.3 1.4-1.4l11.2-1a17.3 17.3 0 0 0 2.7-.3c.8-.2.9.2.8.8l-.3 2.2c-.1.8-.5 1-1.2.8-2-.5-4.2 0-6.3 0-3 0-4.6 1.5-5 4.4a16.5 16.5 0 0 0-.2 2.8 1.2 1.2 0 0 0 1.2 1.3l9 1.5c.5 0 .8.3.7.8 0 1-.3 1.8-.5 2.6s-.7 1-1.4.8l-6.8-.8a10.6 10.6 0 0 1-5.2-1.7 1.3 1.3 0 0 0-1.5-.2c-.6-1.2.2-2.2.3-3.3zm31.8-6.5c-1.2 1.2-2.7 2.2-3.4 4 0 .2-.3.5-.7.4a.7.7 0 0 0-.9.4C83.6 35 82 35 80.5 34.9l-4-.5c-.4-.1-.7-.3-.6-.8l1-7.7c0-.5.4-.5.8-.5a53.6 53.6 0 0 0 6.7-.3c.8 0 1.6.1 1.7 1 .2 1.8 1.5 2.9 2.6 4l1.1 1.2zm19.5 10.5a2 2 0 0 1-.9 1.7 64.5 64.5 0 0 0-6.6 5 1 1 0 0 1-1.2.2c-3.5-1-7.2-1.2-10.8-2l-6-1c-.4 0-.7 0-.7-.5.2-1.8.6-3.4 2.4-4.4.6-.3 1-.3 1.4.2a8.9 8.9 0 0 0 5 3.3 69.1 69.1 0 0 0 7.3 1.3 6.2 6.2 0 0 0 4.7-1.7c2.6-2.1 2.7-2.2.7-5-.6-1-1.4-1.8-2-2.7-.3-.3-.8-.7-.3-1.1s1-1 1.8-.6a3.3 3.3 0 0 1 1.2 1l3.4 4.5a3.4 3.4 0 0 1 .6 1.8z" class="cls-3"/>
      <path d="M127 59.5l5 .2c3.3.2 4.3 0 8.1-1.8a77.6 77.6 0 0 1-18.7 13.8c.8-3.4 1.8-6.6 2.5-10l.4-.3c.3-1.5 1.7-1.5 2.8-1.9z" class="cls-13"/>
      <path d="M95.4 30.3a19.7 19.7 0 0 0-2.4.4 2 2 0 0 1-2-.7l-2.7-2.9c-1-1.1-.5-2.2.9-2.8a13.3 13.3 0 0 1 3-.3l5.4-.6c.6 0 .8.3 1 .8a22 22 0 0 0 4.3 8c.5.6.3.9-.2 1a2.6 2.6 0 0 0-.7.6c-.7.8-1 .4-1.5-.3a6.4 6.4 0 0 0-5-3.2zm-14.7 15l-5.5-.8a1 1 0 0 1-.9-1 40.9 40.9 0 0 1 1-6.7c.1-.5.4-.8 1-.7l6.5 1a2.6 2.6 0 0 1 .7.3c1.7.8 2 1.6.3 2.6-1.8 1-2 2.8-2.2 4.5 0 .6-.2 1-1 .8zM72 37.8l-7-1.3a1.1 1.1 0 0 1-1-.8 3.5 3.5 0 0 1 3.3-4.4c1.9 0 3.7-.5 5.6 0 1.5.4 2 1.2 1 2.5a2.4 2.4 0 0 0-.3 2.2c.3 1.4 0 2-1.7 1.8z" class="cls-3"/>
      <path fill="#ecebd8" d="M63.6 63c0 1-.4.7-.9.4a11.8 11.8 0 0 1-3.4-2.6A3.8 3.8 0 0 0 56 59c-1 0-2.2-1-3.4-1.7a3.3 3.3 0 0 0-.6-.4c-1.2-.3-1-1.1-.6-2 .5-.4 1-.1 1.5.1a11.5 11.5 0 0 0 1.2.7 1.4 1.4 0 0 0 1.7-.4 1.5 1.5 0 0 0 .2-1.8 2.5 2.5 0 0 0-3-1.2c-.3 0-.7.3-1 .2a15.1 15.1 0 0 1 1.6-4.3.4.4 0 0 1 .5.3 10.2 10.2 0 0 0 2.2 3.2 12.6 12.6 0 0 1 2.6 5 8.2 8.2 0 0 0 2.5 4.2z"/>
      <path d="M61.4 61a4 4 0 0 1-2.3-2.3 19.5 19.5 0 0 1-.6-2A11.3 11.3 0 0 0 56 52a11.8 11.8 0 0 1-2.4-3.7 5.9 5.9 0 0 1 .7-2.8l3.6-7.6-.3 3.2a1.7 1.7 0 0 0-.5 1.2l-2.1 4a3 3 0 0 0 .4 3.4 41.7 41.7 0 0 1 3 4.6c1.1 2 1.2 4.2 2.7 5.8a2.9 2.9 0 0 1 .3.9z" class="cls-43"/>
      <path d="M20.9 6.6c3.3 0 3.3 0 3.2 3.2a4.6 4.6 0 0 1 0 .8c-.1.8.5 2-.3 2.4a4 4 0 0 1-3-.1z" class="cls-25"/>
      <path d="M50.4 49.8c-.7 0-.7-1-1.2-1.3a3.4 3.4 0 0 0-4-.4c-1 .5-1.2 1.4-1 2.8l-5-3.3a26 26 0 0 1 3.7-.3c2 .1 4-.2 6.2-.3 1 0 2-1 3-1.2l-1.7 4z" class="cls-3"/>
      <path d="M130.3 59H127a11.8 11.8 0 0 1-5-3.5 11.7 11.7 0 0 1-1.6-2.2c1-1.3 1-1.3 2.4-.3.3.2.5.6 1 .5 1.1 0 1.4.5 1.2 1.4a4.4 4.4 0 0 0 0 .6c0 2.3 0 2.3 2.4 2.5l2.7.3c1 0 .2.5 0 .7z" class="cls-46"/>
      <path d="M52 52.6c2-1 3.4-.8 4.3.7a1.9 1.9 0 0 1-.3 2.5 1.7 1.7 0 0 1-2.4.1c-.7-.4-1.3-1-2.2-.9v-1l.2-.7zm-3.6.4a8.2 8.2 0 0 0-2.2-1.4c-1.4-1-1.7-1.7-1-2.7a2.4 2.4 0 0 1 3.4-.2 2.7 2.7 0 0 1 1 2.4l-.3 1.2-.5.8z" class="cls-47"/>
      <path d="M98.3 15.9c.8 0 1.7-.6 1.7 1 0 1 1.2 1.8 2.3 2 .7 0 1 .2 1 1a1 1 0 0 1-.9 1.2 3.6 3.6 0 0 1-2.8-1L98.3 16z" class="cls-46"/>
      <path fill="#b2dc91" d="M70.8 46.3c.2.3.6.2.8.3.6 0 1.3 0 1.2.8s-.5 1-1.3 1c-1.5-.2-1.8-.4-1.7-1.5.1-.5.4-.6.8-.6a1.7 1.7 0 0 0 .2 0z"/>
      <path fill="#bdd0ae" d="M115.3 45.6c0-.3.1-.6.4-.2l4.4 6c.3.3.2.7-.3 1z"/>
      <path d="M79 71.3a3.1 3.1 0 0 1-2-.8c1-1 1.8-.5 2 .8z" class="cls-43"/>
      <path d="M124 59c.5 0 .8 0 .8.6 0 0-.2.3-.3.2-.4 0-.3-.4-.5-.9z" class="cls-13"/>
      <path d="M58.4 11.6c-.2-1 .3-1.2 1-1.2l5.7-.7c.8 0 1.2 0 1.3 1 0 1.3.3 2.7.4 4 .1 1 0 1.4-1 1.4l-6 .7c-.5 0-.9 0-1-.7 0-1.5-.3-3.1-.4-4.5z" class="cls-50"/>
      <path d="M251 120.7c-.2-4 .8-8.1 1.6-12.2.2-1 0-1.7.2-2.5s0-1.3 1.3-1.2c6.4.7 12.7 1 18.6-2.3a51 51 0 0 0 6.8-5 1.1 1.1 0 0 1 1.6-.2l13.8 7.4a5.8 5.8 0 0 1 2.8 4.2l1 4.6c.3 2-.2 3-2 3.8-2.4 1.3-4.4 3.3-7 4.5a7.2 7.2 0 0 0-3.3 3.1c-.7 1.3-2.4 1.8-3.7 2.4a22.8 22.8 0 0 1-12 2 27.2 27.2 0 0 1-7.2-2c-3-1.2-6-2.3-9.3-2.1a11.7 11.7 0 0 0-1.6.2c-1 .2-1.6-.2-1.6-1.3v-3.4z" class="cls-3"/>
      <path d="M260 103.2c-1.7.2-3.8-.3-6-.2-.8 0-1-.4-1-1a23.8 23.8 0 0 0-2.3-10.7 13.5 13.5 0 0 0-1.3-2.1c-.4-.6-.2-.9.2-1.2l7-5.5c.5-.4.7 0 1 .2a58.1 58.1 0 0 0 9 7.4c2.8 2 5.9 3.2 9 4.6.7.4 2 .5 2 1.2s-1 1.3-1.6 1.8a28.3 28.3 0 0 1-9.8 5.1c-1.8.6-3.8.4-6.2.4zM247 70a3 3 0 0 1 2.6 1.6c2 2.9 3.7 5.9 5.8 8.7.4.4 0 .6-.2.8l-6.7 5c-.4.4-.7.4-1 0a36.4 36.4 0 0 1-3-3.3 8.1 8.1 0 0 0-2-1.6 59 59 0 0 1-5.4-4.2c-.7-.7-.8-1 .2-1.7l8-4.8a3.5 3.5 0 0 1 1.6-.5zm-4.7 54c.2-2.7.7-5.2 2.8-7a8 8 0 0 0 3-7 13.8 13.8 0 0 1 .4-4.8c.3-1.2 1.2-.8 1.9-.7s.4.7.4 1.2c-.4 4.4-1.6 8.7-2 13a21.4 21.4 0 0 0 .4 6.3c.1.7 0 1-.8 1.5a10.7 10.7 0 0 1-4.2.8c-.8 0-1.2-.7-1.5-1.3a5 5 0 0 1-.4-2zm8.7-22.8c-.1.5.3 1.1-.5 1.2a1.2 1.2 0 0 1-1.5-.8 7.5 7.5 0 0 1-.5-2.4c.2-2.6-1.2-4.7-2.1-6.9a3.3 3.3 0 0 1-.4-1c0-.8.7-1 1.2-1.3s.6.4.7.8a34.7 34.7 0 0 1 3 9.5l.1.9z" class="cls-3"/>
      <path d="M246 87.7a1.6 1.6 0 0 1-.9 1c-.5.2-.8 0-1.2-.4l-4.5-4.5a27.7 27.7 0 0 0-4-3.4c-.3-.3-.5-.6-.2-1s.6-.4 1-.2c1 .3 1.4 1 2 1.6a90.6 90.6 0 0 1 7.2 6c.2.2.6.4.6.9z" class="cls-51"/>
      <path d="M226.7 89a1.7 1.7 0 0 1-2-1.8 1.8 1.8 0 0 1 2-2 1.9 1.9 0 1 1 0 3.8z" class="cls-3"/>
      <path d="M44 25.9c-.8-1.2-.2-2.5 0-3.8 0-.4.2-.5.6-.5l7.8-1a33 33 0 0 1 2.5-.2c.3 0 .8-.5.9 0s.6 1.2 0 1.8a16.7 16.7 0 0 0-1.4 1.8c-.8 1.2-2.1 1.3-3.4 1.4a10.4 10.4 0 0 1-2.5 0c-1.5-.3-3 .7-4.4.5z" class="cls-50"/>
      <path d="M56 18.1c.2 1-.5 1.4-1.4 1.4a36.6 36.6 0 0 0-4 .6c-.7.1-1.4 0-1.4-1s-.6-2 1-2.2l4-.5c1.5-.2 1.7.1 1.7 1.7z" class="cls-52"/>
      <path fill="#b3dc94" d="M26.7 8.2a7 7 0 0 0-.2 1.4c0 1-.7 1-1.4 1-1 0-.7-.7-.7-1.2V8c-.2-1.3.5-1.8 1.7-1.4.9.3.3 1 .6 1.6z"/>
      <path fill="#b4dd95" d="M28.4 9.4c0 .4.1 1-.6 1s-.6-.6-.7-1 0-1 .7-1 .5.6.6 1z"/>
      <path fill="#b2dc92" d="M254.8 21.6l-1.6-.7c.4-1.7 1-2.1 1.8-1.2.8.6-.1 1.2-.3 2z"/>
      <path d="M237 29a70 70 0 0 1-9-5c.9-.3 1.5.4 2.1.7 1 .5 1.4.3 1.8-.5l3-5.4c.5-1.2.4-1.3-.7-2-1.4-.7-2.9-1.4-4.2-2.2a22 22 0 0 0 1-2c.4-1.1 1.1-1.1 2-.6l6.6 3.5L248 20c.9.5 1 .9.5 1.6L247 24a39.2 39.2 0 0 1-4.2-2.3c-.8-.5-1.4-.5-1.8.5l-3.1 5.6a4.6 4.6 0 0 1-.9 1.4zm28-11.8c1.7.2 3 1.4 4.6 2l7.3 4c1.3.7 1.4 1 .2 2l-5.7 4.4a1.2 1.2 0 0 1-1.4.2l-9.2-4.8c-.5-.3-.6-.6-.3-1l3.4-6.3a1 1 0 0 1 1.2-.5z" class="cls-3"/>
      <path d="M237 29c-.1-.6.5-1 .7-1.6l3.3-6.1c.2-.3.3-.8.8-.5 1.8 1 3.7 1.7 5.2 3l-4 7.8c-.4.7-.8.4-1.2.1zm-7-14.4c2 .5 3.6 1.8 5.4 2.6.4.2.3.5.1.8l-3.7 7c-.3.5-.6.5-1.1.3A12.2 12.2 0 0 0 228 24c-2-1-2.2-1.8-1.1-3.6s2.1-4 3.1-5.9z" class="cls-50"/>
      <path d="M226.5 18.4a.7.7 0 0 1-.7 0l-3.7-2c-.6-.4-.6-.8-.3-1.3a12.4 12.4 0 0 0 1-2c.5-1.2 1.2-1.5 2.2-.7s2.6 1 3.5 2.2l-2 3.8z" class="cls-52"/>
      <path fill="#c3e1ab" d="M6 20.2c0 .2.3.8-.4.8s-.5-.8-.7-1.2.2-.7.6-.7.7.4.6 1z"/>
      <path d="M272.7 139.2c0-.2-.2-.5 0-.5 1.2-.2 2.2-1.4 3.5-.5a1 1 0 0 0 1.3-.2c.2-.2.5-.4.8-.3a.5.5 0 0 1 0 .8c-.6 1.1 0 1.9.7 2.6s.3 1-.1 1.5-1 .4-1.4-.2a5.2 5.2 0 0 1-.5-.9c-.6-1.6-.7-1.6-2.3-1-1.4.6-2 .3-2-1.3z" class="cls-12"/>
      <path fill="#daeacf" d="M172.4 6.7c-1.2 1.2-1.8 2.5-2.7 3.6a9.2 9.2 0 0 0-1 1.7 1.5 1.5 0 0 0 .2 2 1.6 1.6 0 0 1-.4 2.7c-.2 0-.4 0-.4.4s-.1.9-.6.6a1.3 1.3 0 0 1-.7-1.2c0-.5 0-.8.7-.8.9 0 1-.3.4-1-1-1.4-.2-2.7.4-3.8.5-1 1.3-1.9 1.7-3a2 2 0 0 1 2.4-1.2z"/>
      <path d="M162.7 3.7c0 .6-.4 1.2 0 1.3.8 0 .8-.7 1-1.2 1 .5.5 1 .1 1.5-1 1-1 1.3.3 1.7a.8.8 0 0 1 .6 1.1c0 .3 0 .8-.8.5s-.7.7-.5 1c.6 1-.2 1.8 0 2.8 0 .2 0 .4-.4.4a.4.4 0 0 1-.4-.5 31.2 31.2 0 0 0-.7-5.9 2.4 2.4 0 0 1 .8-2.7z" class="cls-23"/>
      <path d="M58 108.7l16 2.5-2 13-2.4 14.8c-.1.9-.2 1.7-1.5 1.2a2.9 2.9 0 0 0-1 0l-21.4-3.6a2.8 2.8 0 0 1-1.5-3.3l3-19.4c0-1 .2-1.8.3-2.7.3-1.9 1.7-2.7 3-3.5.3-.2.7 0 1 0l6.6 1z" class="cls-6"/>
      <path d="M82.3 77a61 61 0 0 0 7.7 2l1.6.3c1.3 1 1.3 2.3 1 3.9-.8 5.4-3 10.2-5.7 15-.5 1-1.6 1.3-2.2 2.2a27.1 27.1 0 0 0-3.6 8.7c-.2 1-.8 1-1.4.8l-5.4-.8-11.4-1.7-12.8-2c-1.2 0-1.5-.8-1.5-2.7-.1-2.5.6-5 .8-7.4l1-8 .2-2.3c-.2-2-.2-4-.5-6.2a5.9 5.9 0 0 1 2.6-6 30.5 30.5 0 0 1 5.4-3 17.4 17.4 0 0 1 3.6-2.2 1.8 1.8 0 0 1 1.7 0 73.6 73.6 0 0 1 7.8 4.2c3.6 2 7 4.2 10.8 5.7 1 .3 0-.5.3-.5z" class="cls-44"/>
      <path d="M49 73.5a51.8 51.8 0 0 0 6-8.5 1.7 1.7 0 0 1 2.7-.7l.6.4c1.8 1 2 1.8.6 3.4a12.4 12.4 0 0 1-4 3c-1.7.9-3.4 1.8-4.3 3.6a5.7 5.7 0 0 0-.8 2.7 8 8 0 0 1-.6-3.8z" class="cls-58"/>
      <path d="M36.4 52a41.1 41.1 0 0 1 5 2.8 8.4 8.4 0 0 1 2.6 1.6 10.3 10.3 0 0 0-2 1.1c-1.6 1.6-1 4 1.2 5.3a4.5 4.5 0 0 1 .4.2.8.8 0 0 0-.2 1.2l1.9 3.8c.6-.6-.2-2 1-2v5.8a2.3 2.3 0 0 1 0 .4c-3.6-6.3-6-13-9.7-19.1-.1-.4-.4-.6-.2-1z" class="cls-59"/>
      <path fill="#e3e4e2" d="M58 108.7a44.6 44.6 0 0 1-6.3-.8 2.7 2.7 0 0 0-2 .7 4.7 4.7 0 0 0-2.2 3.8l-1.4 9.7-1.8 11.8c-.2 1.2.7 2 1.3 2.7-1.3-.1-1.7-1-1.8-2.1v-2a67.2 67.2 0 0 1 1-8l2-12a13.7 13.7 0 0 1 .5-1.8 3.4 3.4 0 0 1 3.7-3.2 34.1 34.1 0 0 1 7 1.2z"/>
      <path d="M9.9 41c.2-1 1-.8 1.7-.6s1.2.7 1.9.9a46.2 46.2 0 0 1 7 2c2.4 1 5 1.6 7.1 3a2 2 0 0 1-1-.3 12.2 12.2 0 0 0-5.7-1.2c-2.2.1-3.7-1-5.6-1.4a22.3 22.3 0 0 1-5.4-2.3z" class="cls-61"/>
      <path d="M46.6 57.6l.8.5A7 7 0 0 0 47 60a2.8 2.8 0 0 1-2.2 2.3A2.5 2.5 0 0 1 42 61a2.8 2.8 0 0 1 .6-3.4 2 2 0 0 1 2.1-.4 5.8 5.8 0 0 0 1.8.4z" class="cls-62"/>
      <path d="M50 59.8a6.3 6.3 0 0 1 3 1.8c1.3 1.6 1 2.7-.2 3.8a2.3 2.3 0 0 1-2.3.2 1.8 1.8 0 0 1-1.2-1.7 12.3 12.3 0 0 1 .6-4.1z" class="cls-13"/>
      <path d="M54 65a22 22 0 0 1-4 6.5c-.4.4-.6 1-1 1.2v-6.3c0-.3-.3-1 .4-.7a3.5 3.5 0 0 0 4.7-.7z" class="cls-58"/>
      <path d="M46.4 66c-.6.2-.5.7-.5 1.2a1.7 1.7 0 0 1-.6 1.5l-2.5-5.1c-.4-.9.5-.5.8-.6a5.4 5.4 0 0 0 2.9-.6c.4 1.3-.3 2.4 0 3.6z" class="cls-59"/>
      <path d="M40 136.4a5.4 5.4 0 0 0-3.7-2 28 28 0 0 0 4.8-4.5l-1 6a2.2 2.2 0 0 1-.2.5z" class="cls-33"/>
      <path fill="#becdae" d="M46.6 94l-.8.2c.8-1.5.8-3.1 1-4.7.1-.5 0-1 .5-1.5a21 21 0 0 1-.7 6z"/>
      <path d="M54 61.8a8.3 8.3 0 0 1 2.4 1.4 8.9 8.9 0 0 0-2 1.3 9.7 9.7 0 0 0-.3-2.7z" class="cls-58"/>
      <path d="M36.4 52a1.6 1.6 0 0 1 .2 1c-1.3-.7-2.2-2-3.6-2.7a8.5 8.5 0 0 1 3.4 1.8z" class="cls-61"/>
      <path d="M8.1 39.8a2.3 2.3 0 0 1 1.3 1l-3-.6c.5-.5 1.1-.3 1.7-.4z" class="cls-3"/>
      <path d="M2 39h4.6A8.4 8.4 0 0 1 2 39zm21.7 5l-7-2.5a7.8 7.8 0 0 1-2-1.5 29 29 0 0 1 9 4z" class="cls-61"/>
      <path d="M6.7 33.6c.7 0 1.2.4 1.8.7a2.4 2.4 0 0 1-2-.7z" class="cls-8"/>
      <path d="M41.2 91.5c-.4 0-.2-.4-.2-.6.2-.6.2-1-.5-1.3a1 1 0 0 1 0-2 4 4 0 0 0 2-2c.2.3 0 .5-.2.7-.2.6 0 .8.5.6 1.2-.5 1.2.6 1.2 1.1s0 1.6-1 1.4c-1.7-.3-1.7.7-1.7 1.8v.3z" class="cls-12"/>
      <path fill="#bbd7eb" d="M42.3 69.4c-.3.5-.7.8-1 .5-1.3-1.4-3.2-1.4-4.7-2.2a1.4 1.4 0 0 1-.8-2c.4 2.2 2.5 2 4 2.8a22.5 22.5 0 0 0 2.5 1z"/>
      <path fill="#bbd6e5" d="M39.2 75.3c2.7-.2 3.4 1.4 3.8 3.2-.5-1.7-2-2.5-3.8-3.2z"/>
      <path fill="#bcd8f1" d="M37.3 74.6c-.3.4-.5.8-.8.5-.6-.4-1.4-.4-1.8-1a.4.4 0 0 1 0-.4c.2-.2.4 0 .5 0a6.5 6.5 0 0 0 2 .9z"/>
      <path d="M155 52.8c1.7-1.6 3.9-2.8 5.3-4.7.4-.5 1.2-.9 1-1.8a2.7 2.7 0 0 0 2-1.2l1.9-2c.3-.3.5-1 1.2-.5s1 .8.7 1.7c-.5 2-2 3.4-3.5 4.7-.8 1-1.4 1.6-1 3a1.6 1.6 0 0 1 0 1c0 .3 0 .7.5.8s.9.2 1.2-.4c1.3-2.4 3.6-3.8 5.5-5.5.6-.5.8.1 1 .3s.7.7.3 1.2l-1 1.3a1.3 1.3 0 0 0 0 2c.9.7 1.3 0 1.8-.4l.2-.3c1.3-1.2 1.8-1 2.9.4.4.6-.2 1-.4 1.2l-3 3.3a3.2 3.2 0 0 0-1 3.5c.2.8-.4 1.9.5 2.7-1.4 0-2.7-.5-4.2-.4l-4.6.6a2.1 2.1 0 0 1-.2-3l1.6 1.1c.6.4 1 .2 1.4-.3s0-.8-.3-1l-2.2-1.8c-.2-.5.2-.8.4-1a2.6 2.6 0 0 0 .5-1.5c0-.3 0-.8-.4-1s-.5.4-.7.7a7.3 7.3 0 0 1-1.3 1.7c-2-1.4-4.2-2.7-6-4.4z" class="cls-3"/>
      <path fill="#dee7d8" d="M176.5 66.8a16 16 0 0 0-4.7-3.5 3.5 3.5 0 0 1 1.6-3.8l3.7-3a1.7 1.7 0 0 1 .3-.4c1-.5 5.3.5 6 1.4.6.7.3 1.3-.9 1.8-.2-1-1.2-1-1.9-.9s-1.5-.2-1.5 1c0 .5-.5.8-.7 1.3-.6.8-1.2 1.7-.8 2.9 1-.3.9-1.7 2-1.6a17.3 17.3 0 0 1-3 4.8z"/>
      <path fill="#dce1e4" d="M194.5 73.5l-.5-.5.1-.3c1.6-.9 1.3-2.1.7-3.4a8.2 8.2 0 0 0-.6-1.3c-1-1.5-2.4-3-2.7-5a2.3 2.3 0 0 0-.7-1c-.5-.4-.8-.5-1.2.2a6.5 6.5 0 0 1-1.6 1.9 4.5 4.5 0 0 1-5.2 0 1.3 1.3 0 0 0-2 0c-1 1.5-2 2.8-2.5 4.4a2.3 2.3 0 0 1-1-1 1 1 0 0 0 1-.8c.3-1.2 1.5-1.9 1.9-3 .2-.8 2.3-1 3-.5s.8 1.1 1.5.3c.3.4.7 0 1.2 0a2.3 2.3 0 0 0 2.5-1.7c.1-1.8 1-1.3 2-1 1.7.5 2 1 2.4 3a7.5 7.5 0 0 0 1.4 2.5c1 1.6 1.4 3.4 2 5.1a.8.8 0 0 1-.3 1c-.5.4-1 .6-1.4 1.1z"/>
      <path d="M179.6 62c-.7.4-1 1-1.4 1.7s-.7.6-1-.1c-.4-1.5.5-2.5 1.2-3.6.2-.3.8-.4.4-1-.3-.4.2-.7.5-.8a6.5 6.5 0 0 1 3 0c1 .3.3.7.2 1a11.7 11.7 0 0 0-3 2.8z" class="cls-25"/>
      <path d="M114.3 102.2c-.1-.8-.9-1.2-1.4-1.8s-.6-.7 0-1a23.3 23.3 0 0 1 5.5-3.4c.8-.3 1.2-.2 1.5.7 1 2.7 1 2.7-1.7 3.7a9.4 9.4 0 0 0-2.3 1.4 2.3 2.3 0 0 1-1.4.6c-.2 0-.2 0-.2-.2z" class="cls-62"/>
      <path fill="#d1d6c6" d="M112 109.2a8.3 8.3 0 0 1 2.2 1.8c.3.5-.3 1-.6 1.2l-2.3 3c-.4.7-.8 1-1.5.4-1.7-1.4-1.7-1.4-.5-3l2-2.7a5.7 5.7 0 0 1 .8-.7z"/>
      <path d="M114.3 102.2l.2.2a13.8 13.8 0 0 1-2.3 2.6c-.5.4-.9 0-1.2-.3s-.8-1-1.6-.2 0 1 .4 1.6l.7.7a10.2 10.2 0 0 1-3-1.5c-.4-.3 0-.6.3-.9a14.7 14.7 0 0 0 1.8-2.2l1.5-1.5c.7-.7 1.2-.6 1.8.2a11.4 11.4 0 0 0 1.4 1.3z" class="cls-47"/>
      <path d="M129.8 49.4c1-1 1.7-.8 2.2.2a3 3 0 0 0 1.4 1.7c.2 0 .4.3.2.6a3.4 3.4 0 0 1-.8.7c-.3.2-.4-.2-.5-.4-.6-1.1-1-2.5-2.5-2.8z" class="cls-28"/>
      <path fill="#b9ceaa" d="M129.2 53s0 .3-.3.3-.5 0-.6-.3c0-.8.2-1.7-.7-2.3-.2-.2.2-.7.6-.8s.6 0 .6.2a3.7 3.7 0 0 0 .4 2.8z"/>
      <path d="M119.3 76.5c1.2-.7 2.6-.7 3.8-1.2 1.9-.9 3.9-1.7 5.8-2.4a5.7 5.7 0 0 1 6.7 2l8.7 10.7a1.2 1.2 0 0 1-1 1.8 4.7 4.7 0 0 0-2.1 1.3 19.3 19.3 0 0 1-7.7 3.3 1.5 1.5 0 0 1-1.3-.2c-.9-.7-1.6-.4-2.5 0a5.7 5.7 0 0 1-2.6.7 29 29 0 0 0-12.4 3 3.1 3.1 0 0 0-.9.6c-2.2 2.5-5.1 4.4-7.6 6.6a18.2 18.2 0 0 0-5.6 9c-.3 1-.7 1.4-2 1.1-3-.6-6-1-9.1-1.4l-5.7-.9c-.7 0-1-.3-.7-1 1-3.8 2-7.4 4.6-10.5 1.9-2.2 2.7-5 3.9-7.8a30.3 30.3 0 0 0 2.3-9.2 1.7 1.7 0 0 1 .2-.5 2.9 2.9 0 0 1 2.7-.5 9 9 0 0 0 5.6-.4 37.9 37.9 0 0 1 4.6-.7 72.6 72.6 0 0 0 12.3-3.4zm34-22.5c2.5 1.5 4.7 3.4 7 5a1.6 1.6 0 0 0 .2 2.4 6 6 0 0 1 .8 2.4 10.6 10.6 0 0 0-5.3 5 16.4 16.4 0 0 0-1.3 9.1c.1 1 0 1.1-.8 1.4-1.4.5-2.3 1.8-3.5 2.6l-1 .8c-2 1.6-2 1.5-3.8-.5-2.7-3.5-5.6-6.9-8.2-10.5a5 5 0 0 1 .4-6.4c2.5-2 5.4-3.4 7.9-5.5l6.6-5.3c.3-.2.5-.6 1-.5zm1.2 48.2c-1.8 0-3-1-3-2.6.2-3.3-1.5-5.7-3.5-8a8.4 8.4 0 0 0-2.3-2.2c-1.4-.8-1.4-1.3 0-2.2 2.5-1.7 5-3.7 7.6-5.2a10.1 10.1 0 0 1 1.4-.7.6.6 0 0 1 1 .4c1 2.3 2.6 4 4 5.9s3.4 3.6 4.5 5.8a1 1 0 0 0 .1.2c1 1 1 1.4-.3 2.3l-7.2 5.5a3.2 3.2 0 0 1-2.3.8z" class="cls-3"/>
      <path d="M176 69a34.4 34.4 0 0 0 4.8 2.6c.6.3.6.8.3 1.3a8.8 8.8 0 0 1-3.3 3.1 19 19 0 0 0-7.2 6.5c-.3.5-.5.6-1.2.3l-8.5-3.5a6.2 6.2 0 0 0-3-.6c-.6 0-1.3-.2-1.3-1-.1-3-.4-6.2 1.6-9 1-1.3 2-2.6 3.6-3 1 .8.7 2 .6 3-.3 2.2.7 3.7 2.3 4.9a4.3 4.3 0 0 0 6.5-1.6c.6-1.3 1.8-1.4 2.8-2a8.7 8.7 0 0 0 2-1z" class="cls-3"/>
      <path d="M178.3 68.5c-.6-1 .4-1.7.8-2.3.8-1 1-2.6 2.6-3 .6 0 1 0 1.3.5.4.7 1 .7 1.7.9a4.2 4.2 0 0 0 4.3-2c.2-.1.4-.3.5-.6.1-1.2.8-1 1.3-.4a4.4 4.4 0 0 1 1.5 2.7 2.6 2.6 0 0 0 .8 1.7 10.6 10.6 0 0 1 2.6 5 1 1 0 0 1-.4 1.2l-1.3.8c-2.4-1.4-5.1-1.5-7.7-2a20.2 20.2 0 0 1-8-2.5z" class="cls-13"/>
      <path d="M176 69c-.1.8-.7 1-1.5 1.3-1.2.4-2.7.4-3 2.3-.3 1.2-2.6 2.3-4 2-.7-.2-1.4 0-2.2-.3a5.1 5.1 0 0 1-3.2-5.3 7.1 7.1 0 0 0-.3-3.3 1.6 1.6 0 0 1 1-.5.7.7 0 0 1 .9.7c0 1.3.7 2.4.7 3.6a2.4 2.4 0 0 0 1.8 2.5 3 3 0 0 0 3.1-.8 1.4 1.4 0 0 0 .2-1.4c-.4-1.5 0-3 0-4.5 0-.6.4-.9 1-.6l.8.3c.8.6.6 1.4.4 2.2 0 .6-.3 1 .3 1.5s1 .1 1.5-.2a2 2 0 0 1 1.8-.3z" class="cls-71"/>
      <path d="M170.6 64.8c-.6 0-1 .1-.8.7.3 1.5-.5 3 .2 4.5.4.8-.6 2-1.8 2.4a3.1 3.1 0 0 1-4.2-2.9 7.9 7.9 0 0 0-1.2-4.2 9.3 9.3 0 0 1 5.8-.9c.7 0 1.4 0 2 .4z" class="cls-3"/>
      <path d="M153.3 54c-3 2.5-6 5-9.2 7.3a38 38 0 0 1-6.3 4 18 18 0 0 1 2.8-2.8 11.8 11.8 0 0 0 2.2-2.5 76.7 76.7 0 0 0 8-7.7 6.3 6.3 0 0 1 2.5 1.8z" class="cls-25"/>
      <path d="M135.3 67.3a8 8 0 0 0 2 6.3l7.6 9.6 1.5 1.9c-.6.5-1.2 0-1.7-.6l-7.5-9.4c-2-2.7-4.4-4.4-7.9-3.6-.1-.3 0-.5.3-.7l4.8-3.3a.8.8 0 0 1 1-.2z" class="cls-51"/>
      <path d="M119.3 76.5a16.4 16.4 0 0 1-4.9 2 50.8 50.8 0 0 1-11.3 2.3c-.8 0-1.3.7-2 .8a12 12 0 0 1-5-.3c-.5-.1-1-.3-1.3.3-.2.3-.5.2-.7 0 0-1.2 1-1.2 1.8-1.6 4.1.7 8.1-.4 12.2-1 1.7-.2 3.3-1 5-1s3.7-1 5.6-1.3z" class="cls-40"/>
      <path fill="#dde8d6" d="M175.3 68.3a5.7 5.7 0 0 0-2.3 1c-.5.5-1 0-1.3-.3a1 1 0 0 1-.5-1.4 2.6 2.6 0 0 0 .1-2.6c1.8.6 2.9 2 4 3.3z"/>
      <path d="M161.3 63.8c-.6-.3-.6-.9-.7-1.4a2.2 2.2 0 0 0-.7-1.3c-1-1-.6-1.5.4-2l1.7 1.2c-.5 1 0 2 .3 3-.3.1-.6.5-1 .5z" class="cls-71"/>
      <path fill="#c1e2a6" d="M135.3 67.3a66.1 66.1 0 0 0-6 4.2l-2.5 1c-.2 0 0-.3 0-.4a73.6 73.6 0 0 0 8.5-5.8 4.7 4.7 0 0 1 .5-.3l-.5 1.3z"/>
      <path fill="#b5d4cb" d="M261.4 33a2.2 2.2 0 0 0-.4.3l-6.5 4.7a.9.9 0 0 1-1.1 0l-7-3.7c-.4-.2-.7-.5-.3-1l4.7-7.5c.5-.7.8-.6 1.4-.2q4.3 3.4 8.7 6.6c.2.2.5.3.5.9zm-16.6 2.4c2 1.2 4.2 2.3 6.4 3.4 1.3.6 1.3.7.2 1.5l-6.2 4.5c-.4.3-.7.2-1 0l-2.8-3.2c-.4-.4-.2-.6 0-.9l3.3-5.4z"/>
      <path d="M220.3 47.4a.7.7 0 0 1-.5.6c-1 .4-1.8 1-2.7 1.2s-1.2-.4-1.6-1c-1.2-1.6-2.2-3.4-4-4.7a29.3 29.3 0 0 1-4.6-4c-2.2-2.3-2-2.7 0-4.5 1.6-1.3 1.8-1.3 3.3 0a58.7 58.7 0 0 1 9 10.3l1.1 2z" class="cls-3"/>
      <path fill="#bedaf6" d="M161 57.3c.2-1 1.2-1.7 1.4-2.8 0-.2.4-.2.6 0s.7.2.8.7c.2 1.3-.5 2.2-1.3 3-.6 0-1-.6-1.4-1z"/>
      <path d="M82.3 77c.1.4.6.5.6 1a41 41 0 0 1-8-3.8c-4-2.1-7.7-4.6-11.9-6.4a1.2 1.2 0 0 0-1.2.1L58 70a11.3 11.3 0 0 0 2.5-3.7c.2-.6.8 0 1 0a80.8 80.8 0 0 1 8 4.3C73.9 73 78 75 82.4 77z" class="cls-28"/>
      <path d="M62.4 110.5c.4.3 1.2 0 1.7.6.3.4.4 0 .6 0a3.5 3.5 0 0 1 2.2.2c.5.2.5.6.4 1-.5 1 0 1.5 1 1.5a19 19 0 0 0 2.2.4c1.2-.1 1.2.7 1 1.5-.3 2.7-.8 5.3-1.3 8l-.1 1c-.2.7-.2 1.3-1.3 1-2.2-.5-2.3-.4-2-2.6l.5-2.3v-.7c-1.6-.6-.6-1.7-.5-2.5.1-1.6.2-1.7-1.4-2-.6 0-1.3.3-1.5-.6-.1-.3-.4 0-.5 0-.2.5-.6.4-1 .4-1.7-.3-1.7-.3-1.5-2l.3-2c0-.8.3-1 1.2-.9z" class="cls-76"/>
      <path d="M71.7 81.4c.4-.2.6 0 .8 0s.7.2.8-.3-.1-.6-.5-.6c-1.2 0-.9-1-.9-1.7s.5-.8 1.1-.8c.4 0 .7 0 .8-.4a1 1 0 0 0-.3-1L72 75.3c-.3-.2-.7-.4-.7-1l3 1.7c2.5 1.6 5.4 1.8 8.1 2.4.6.2 1 .3.8 1l-.6 3c-.3 1-1.3.8-2 .7l-6-.8-1.1-.1c-.6-.1-1.3-.1-1.7-.8z" class="cls-62"/>
      <path d="M61 70l4.2 2.5v.3H63c-.2 0-.5 0-.5-.3 0-1.3-1.2-1.5-2-2.2z" class="cls-28"/>
      <path d="M104.8 97.7l1-9c.4-2.3.8-4.7 1-7 0-.6.2-1 .9-1.1l5-1c.7-.2.8.3 1 .8l2.6 8c.3 1 1.2 1.6 1.5 2.5a1.7 1.7 0 0 1-1 2.4 22.7 22.7 0 0 0-8.4 5.7c-.7.8-1.3 1-2 0-.6-.5-1.6-.7-1.6-1.3z" class="cls-6"/>
      <path fill="#b3dd93" d="M105.5 88c0 .6 0 1.2-.8 1-.4 0-1.2.3-1-.6 0-.4-.3-1.3.7-1.2.4 0 1.4-.3 1.1 1z"/>
      <path d="M104.6 96c-.1.4.3 1.3-.7 1s-.4-1-.6-1.5.2-.8.8-.8c.9.1.6.7.5 1.4z" class="cls-76"/>
      <path fill="#e2e3e2" d="M73 79.5c.7 0 1.3.4 1.5-.6 0-.2 1 0 1.3.2s.3.7.3 1-.4.6-.8.7c-1 .1-1.7-.5-2.2-1.3z"/>
      <path fill="#b1dd90" d="M112.7 85.5a2.3 2.3 0 0 1 2.2 1c.2 0 .5.2.3.6a.6.6 0 0 1-.6.4 16.4 16.4 0 0 1-3-.3c-.6-.2-.1-1-.2-1.5 0-.3.7-.7 0-.9s-1.6-.4-1.9.2c-.2.4-1 1.3.3 1.8 1 .5.2 1.3.2 2a.9.9 0 0 1-1.2.6c-.6-.3-1.3-.7-1-1.6 0-.5.3-1-.5-1.4-.3-.2-.3-.8-.1-1 .8-1.2.3-2.5.6-3.8.2-.7.4-1 1-.8l3.7.5c.5 0 1 0 .8.6a11.9 11.9 0 0 1-.6 3.6z"/>
      <path d="M246 14a20 20 0 0 0-20 20 23.3 23.3 0 0 0 2.4 9.7c3.7 7.2 17.4 27.4 17.4 27.4a.3.3 0 0 0 .3 0S260 51 263.7 43.8A23.3 23.3 0 0 0 266 34a20 20 0 0 0-20-20z" class="cls-80"/>
      <path d="M262.7 34.2a16.7 16.7 0 0 1-3 9.3 17.2 17.2 0 0 1-2.5 3 15.9 15.9 0 0 1-1.4 1 16.5 16.5 0 0 1-5.4 2.6 12.4 12.4 0 0 1-1.4.3 14.3 14.3 0 0 1-1.8.3h-1a16.6 16.6 0 0 1-7.5-1.7 14.8 14.8 0 0 1-2-1.2 16.1 16.1 0 0 1-2.3-1.8 16.4 16.4 0 0 1-1.5-1.6 16.7 16.7 0 0 1 12.7-27.2h.4a16.7 16.7 0 0 1 16.7 17z" class="cls-1"/>
      <g mask="url(#mask)">
        <path fill="#bbd5d6" d="M249 26.4v24a14.3 14.3 0 0 1-1.8.2h-1a16.6 16.6 0 0 1-7.5-1.6l-2-1.2a16.1 16.1 0 0 1-2.3-1.8 16.4 16.4 0 0 1-1.5-1.6v-18a1.2 1.2 0 0 1 .5-1 1.8 1.8 0 0 1 1.1-.3h12.8a1.8 1.8 0 0 1 1.2.4 1.2 1.2 0 0 1 .4 1z"/>
        <path d="M236.2 28.2h2.5a.2.2 0 0 1 0 .2v1.9a.3.3 0 0 1 0 .2.3.3 0 0 1-.3 0h-2.2a.4.4 0 0 1-.2 0 .3.3 0 0 1-.1-.2v-2a.4.4 0 0 1 .3 0zm6.4 0h2.5a.3.3 0 0 1 0 .2v1.9a.3.3 0 0 1 0 .2.3.3 0 0 1-.2 0h-2.3a.3.3 0 0 1-.2 0 .3.3 0 0 1 0-.2v-2a.4.4 0 0 1 .2 0zm-6.4 3.9h2.5a.2.2 0 0 1 0 .2v2a.3.3 0 0 1 0 .1.3.3 0 0 1-.3 0h-2.2a.3.3 0 0 1-.2 0 .3.3 0 0 1-.1-.2v-1.8a.3.3 0 0 1 0-.2.4.4 0 0 1 .3 0zm6.4 0h2.5a.2.2 0 0 1 0 .2v2a.3.3 0 0 1 0 .1.3.3 0 0 1-.2 0h-2.3a.3.3 0 0 1-.2 0 .3.3 0 0 1 0-.2v-1.8a.3.3 0 0 1 0-.2.4.4 0 0 1 .2 0zm-6.4 3.9h2.5a.2.2 0 0 1 0 .2v1.9a.2.2 0 0 1 0 .2.3.3 0 0 1-.3 0h-2.2a.4.4 0 0 1-.2 0 .2.2 0 0 1-.1-.2v-1.8a.3.3 0 0 1 0-.2.3.3 0 0 1 .3 0zm6.4 0h2.5a.4.4 0 0 1 0 .2v1.9a.2.2 0 0 1 0 .2.4.4 0 0 1-.2 0h-2.3a.4.4 0 0 1-.2 0 .2.2 0 0 1 0-.2v-1.8a.3.3 0 0 1 0-.2.3.3 0 0 1 .2 0zm-6.4 4h2.3a.2.2 0 0 1 .2 0 .2.2 0 0 1 0 .2v1.9a.2.2 0 0 1 0 .2.3.3 0 0 1-.3 0h-2.2a.4.4 0 0 1-.2 0 .2.2 0 0 1-.1-.2v-1.9a.3.3 0 0 1 0-.2.4.4 0 0 1 .3 0zm6.4 0h2.3a.2.2 0 0 1 .2 0 .4.4 0 0 1 0 .2v1.9a.2.2 0 0 1 0 .2.4.4 0 0 1-.2 0h-2.3a.4.4 0 0 1-.2 0 .2.2 0 0 1 0-.2v-1.9a.3.3 0 0 1 0-.2.4.4 0 0 1 .2 0zm-6.4 4h2.5v2a.2.2 0 0 1 0 .2.3.3 0 0 1-.3 0h-2.2a.4.4 0 0 1-.2 0 .2.2 0 0 1-.1-.2v-1.8a.3.3 0 0 1 .1-.2.4.4 0 0 1 .2 0zm6.4 0h2.5v2a.2.2 0 0 1 0 .2.4.4 0 0 1-.2 0h-2.3a.4.4 0 0 1-.2 0 .2.2 0 0 1 0-.2v-1.8a.3.3 0 0 1 0-.2.4.4 0 0 1 .2 0z" class="cls-83"/>
        <path fill="none" d="M238.8 49v-1a.2.2 0 0 0-.2 0h-2"/>
        <path d="M242.6 47.8h2.3a.2.2 0 0 1 .2.1.4.4 0 0 1 0 .2V50a.3.3 0 0 1 0 .2.3.3 0 0 1-.2 0h-2.3a.3.3 0 0 1-.2 0 .3.3 0 0 1 0-.2v-2a.4.4 0 0 1 .2 0z" class="cls-83"/>
        <path fill="#4c9095" d="M259.8 30.8v12.7a17.2 17.2 0 0 1-2.6 3 15.9 15.9 0 0 1-1.4 1 16.5 16.5 0 0 1-5.4 2.6 12.4 12.4 0 0 1-1.4.3.8.8 0 0 0 0 .2v-.2a14.3 14.3 0 0 1-1.8.3v-20a1.3 1.3 0 0 1 .4-1 1.3 1.3 0 0 1 1-.2h9.8a1.3 1.3 0 0 1 1.4 1.3z"/>
        <path d="M249.9 33a1 1 0 0 1 .5 0 1 1 0 0 1 .4.5 1 1 0 0 1-.3 1 1 1 0 0 1-.4.3 1 1 0 0 1-.6 0 1 1 0 0 1-.5-.4 1 1 0 0 1-.1-.5 1 1 0 0 1 .3-.7 1 1 0 0 1 .7-.3zm0 4.6a.9.9 0 0 1 .5.1 1 1 0 0 1 .4.5 1 1 0 0 1-.3 1 1 1 0 0 1-.4.4 1 1 0 0 1-.6 0 1 1 0 0 1-.5-.4 1 1 0 0 1 .2-1.3 1 1 0 0 1 .7-.3zm0 4.4a.9.9 0 0 1 .5.2 1 1 0 0 1 .4.4 1 1 0 0 1 0 .6 1 1 0 0 1-.3.6.9.9 0 0 1-.5.2 1 1 0 0 1-.6 0 1 1 0 0 1-.4-.4 1 1 0 0 1 .1-1.3 1 1 0 0 1 .7-.3zm0 4.2a1 1 0 0 1 .5.2 1 1 0 0 1 .4.4 1 1 0 0 1 0 .6 1 1 0 0 1-.8.8 1 1 0 0 1-.6 0 1 1 0 0 1-.4-.4 1 1 0 0 1-.2-.6 1 1 0 0 1 1-1zm.5 3.9a12.4 12.4 0 0 1-1.4.3.9.9 0 0 1 .2-.2 1 1 0 0 1 .7-.3 1 1 0 0 1 .5.2zm3-8.1a.9.9 0 0 1 .4.2 1 1 0 0 1 .3.4 1 1 0 0 1-.2 1.1.8.8 0 0 1-.5.3 1 1 0 0 1-.5 0 1 1 0 0 1-.4-.4 1.1 1.1 0 0 1-.2-.6 1 1 0 0 1 .3-.7 1 1 0 0 1 .6-.3zm0-4.4a.9.9 0 0 1 .4.1 1 1 0 0 1 .3.5 1 1 0 0 1 0 .6 1.1 1.1 0 0 1-.2.5 1 1 0 0 1-.5.3.8.8 0 0 1-.5 0 1 1 0 0 1-.4-.4 1.1 1.1 0 0 1-.2-.6 1 1 0 0 1 .3-.7 1 1 0 0 1 .7-.3zm0-4.6a.9.9 0 0 1 .4 0 1 1 0 0 1 .3.6 1 1 0 0 1-.2 1 .9.9 0 0 1-.5.4 1 1 0 0 1-.5 0 1 1 0 0 1-.4-.5 1.1 1.1 0 0 1-.2-.5 1 1 0 0 1 .3-.8 1 1 0 0 1 .6-.3zm0 13.2a1 1 0 0 1 .4.2 1 1 0 0 1 .3.4 1 1 0 0 1 0 .6 1 1 0 0 1-.2.5 1 1 0 0 1-1 .2 1 1 0 0 1-.4-.4 1 1 0 0 1-.2-.5 1 1 0 0 1 .3-.7 1 1 0 0 1 .7-.3zm3.3-13.3a1 1 0 0 1 .6.1 1 1 0 0 1 .3.5 1 1 0 0 1-.2 1 1 1 0 0 1-.5.3 1 1 0 0 1-.6 0 1 1 0 0 1-.4-.4 1 1 0 0 1-.2-.5 1 1 0 0 1 .3-.7 1 1 0 0 1 .7-.3zm0 4.7a1 1 0 0 1 .6.1 1 1 0 0 1 .3.5 1 1 0 0 1-.2 1 1 1 0 0 1-.5.4 1 1 0 0 1-.6 0 1 1 0 0 1-.4-.4 1 1 0 0 1 .1-1.3 1 1 0 0 1 .7-.3zm0 4.4a1 1 0 0 1 .6.2 1 1 0 0 1 .3.4 1 1 0 0 1 0 .6 1 1 0 0 1-.2.6.9.9 0 0 1-.5.2 1 1 0 0 1-.6 0 1 1 0 0 1-.4-.4 1 1 0 0 1 .1-1.3 1 1 0 0 1 .7-.3zm.5 4.4a15.9 15.9 0 0 1-1.4 1.1.9.9 0 0 1 0-.3 1 1 0 0 1 1-1 1 1 0 0 1 .4.2z" class="cls-83"/>
      </g>
      <path d="M66 24a20 20 0 0 0-20 20 23.3 23.3 0 0 0 2.4 9.7C52.1 61 65.8 81 65.8 81a.3.3 0 0 0 .2 0 .2.2 0 0 0 .2 0S80 61 83.6 53.7A23.3 23.3 0 0 0 86 44a20 20 0 0 0-20-20z" class="cls-80"/>
      <path d="M82.7 44.2a16.6 16.6 0 0 1-2.8 9 16.8 16.8 0 0 1-11.6 7.3 14.4 14.4 0 0 1-2 .2 16.6 16.6 0 0 1-4-.4 17 17 0 0 1-5-2 16.5 16.5 0 0 1-3-2.3 16.7 16.7 0 0 1 11.3-28.8h.4a16.8 16.8 0 0 1 15.5 10.5 16.9 16.9 0 0 1 1.2 6.5z" class="cls-1"/>
      <g mask="url(#mask-2)">
        <path fill="#ffeb7e" d="M80 47.3v6a16.8 16.8 0 0 1-11.7 7.2V47.3z"/>
        <path d="M74.2 49.8h-2.5a.5.5 0 0 0-.5.5v2.5a.5.5 0 0 0 .5.5h2.5a.5.5 0 0 0 .5-.5v-2.5a.5.5 0 0 0-.5-.5z" class="cls-1"/>
        <path fill="#ffa375" fill-rule="evenodd" d="M71 37H60l8.3 10.4H80l-8.5-10.1a.8.8 0 0 0-.2-.2.6.6 0 0 0-.3-.1z"/>
        <path fill="#ffe447" fill-rule="evenodd" d="M68.3 47.4v13.1a14.4 14.4 0 0 1-2 .2 16.6 16.6 0 0 1-4-.4 17 17 0 0 1-5-2 16.5 16.5 0 0 1-3-2.3 16.8 16.8 0 0 1-3-3.8v-4.8l9-10.4 8.1 10.4z"/>
        <path d="M62.3 52v8.3a17 17 0 0 1-5-2V52a.5.5 0 0 1 .5-.5h4a.5.5 0 0 1 .5.5z" class="cls-1"/>
      </g>
      <path fill="none" stroke="#006169" stroke-dasharray="6 6" stroke-linecap="round" stroke-linejoin="round" stroke-width="2" d="M86 76.6l14 2.5 28-8.5 7-5.5 15.5-14.5 21 15L182 72l10.5 1.5 4 3.5 28-16"/>
    </g>
  </g>
</svg>
