<svg xmlns="http://www.w3.org/2000/svg" viewBox="0 0 20 21">
  <path fill="#006169" fill-rule="evenodd" d="M8.46 12.14v5.1c0 .13.05.24.15.34a.49.49 0 0 0 .36.15h.5a.49.49 0 0 0 .36-.15.47.47 0 0 0 .15-.35v-1h7.67v1c0 .14.05.25.15.35a.49.49 0 0 0 .36.15h.5a.49.49 0 0 0 .36-.15.47.47 0 0 0 .15-.35v-5.09l-1.31-3.76a.65.65 0 0 0-.2-.28c-.08-.07-.2-.1-.37-.1h-6.95a.6.6 0 0 0-.39.1.54.54 0 0 0-.18.28l-1.3 3.76zm9.5-.67H9.67l.87-2.58h6.53l.87 2.58zm-15.2 5.78v.47h5.02v-6.1H2.2V5.6h9.07v1.72h1.38V5.86c0-.92-.44-1.57-1.32-1.93-.88-.37-2.4-.55-4.6-.55-2.35 0-3.92.17-4.71.5-.8.34-1.2 1-1.2 1.99v7.35c0 .71.33 1.35.98 1.9.65.57 1.4.85 2.25.85l-1.3 1.28zm1.26-3.4c-.17.16-.38.24-.64.24s-.48-.08-.65-.24a.84.84 0 0 1-.25-.63.84.84 0 0 1 .25-.63.88.88 0 0 1 .65-.25.88.88 0 0 1 .64.25.84.84 0 0 1 .25.63.84.84 0 0 1-.25.63zm7.97-.11a.8.8 0 1 1-1.6 0 .8.8 0 0 1 .8-.8.8.8 0 0 1 .79.8zm4.78.8a.8.8 0 1 0 0-1.6.8.8 0 0 0 0 1.6z" clip-rule="evenodd"/>
</svg>
